<svg width="24" height="24" viewBox="0 0 24 24" fill="none" xmlns="http://www.w3.org/2000/svg">
<g id="Key / 24 / Outline">
<path id="Vector" d="M21.0035 4.40628L21.7135 3.70628C21.9018 3.51798 22.0076 3.26258 22.0076 2.99628C22.0076 2.72998 21.9018 2.47458 21.7135 2.28628C21.5252 2.09798 21.2698 1.99219 21.0035 1.99219C20.7372 1.99219 20.4818 2.09798 20.2935 2.28628L18.8935 3.69628L16.0635 6.52628L9.75351 12.8263C8.71955 12.1441 7.46918 11.87 6.24468 12.0572C5.02018 12.2443 3.90873 12.8793 3.1257 13.8391C2.34267 14.799 1.9438 16.0153 2.00639 17.2524C2.06898 18.4896 2.58857 19.6594 3.46447 20.5353C4.34038 21.4112 5.51024 21.9308 6.74737 21.9934C7.98451 22.056 9.20083 21.6571 10.1607 20.8741C11.1205 20.0911 11.7555 18.9796 11.9426 17.7551C12.1298 16.5306 11.8557 15.2802 11.1735 14.2463L16.7635 8.64628L18.8835 10.7763C18.9768 10.8689 19.0873 10.9422 19.2089 10.992C19.3305 11.0419 19.4607 11.0673 19.5921 11.0668C19.7234 11.0664 19.8535 11.04 19.9747 10.9893C20.0959 10.9386 20.2059 10.8645 20.2985 10.7713C20.3911 10.678 20.4644 10.5675 20.5143 10.4459C20.5641 10.3243 20.5895 10.1941 20.5891 10.0627C20.5886 9.93135 20.5623 9.80133 20.5116 9.68012C20.4608 9.5589 20.3868 9.44886 20.2935 9.35628L18.1735 7.23628L19.5935 5.82628L20.2935 6.52628C20.3861 6.61952 20.4961 6.69361 20.6174 6.74432C20.7386 6.79503 20.8686 6.82137 21 6.82184C21.1314 6.8223 21.2616 6.79688 21.3831 6.74703C21.5047 6.69717 21.6153 6.62386 21.7085 6.53128C21.8018 6.4387 21.8758 6.32866 21.9266 6.20744C21.9773 6.08623 22.0036 5.95621 22.0041 5.82481C22.0045 5.69342 21.9791 5.56322 21.9293 5.44165C21.8794 5.32008 21.8061 5.20952 21.7135 5.11628L21.0035 4.40628ZM7.00351 19.9963C6.41017 19.9963 5.83015 19.8203 5.3368 19.4907C4.84346 19.161 4.45894 18.6925 4.23188 18.1443C4.00481 17.5962 3.9454 16.993 4.06116 16.411C4.17691 15.8291 4.46264 15.2945 4.88219 14.875C5.30175 14.4554 5.8363 14.1697 6.41824 14.0539C7.00019 13.9382 7.60339 13.9976 8.15156 14.2246C8.69974 14.4517 9.16828 14.8362 9.49792 15.3296C9.82757 15.8229 10.0035 16.4029 10.0035 16.9963C10.0035 17.7919 9.68744 18.555 9.12484 19.1176C8.56223 19.6802 7.79916 19.9963 7.00351 19.9963Z" fill="black"/>
</g>
</svg>
