<svg width="25" height="24" viewBox="0 0 25 24" fill="none" xmlns="http://www.w3.org/2000/svg">
<g id="file_upload-24px">
<path id="Vector" d="M6.8 19.4992C6.3 19.4992 5.875 19.3242 5.525 18.9742C5.175 18.6242 5 18.1992 5 17.6992V14.9992H6.5V17.6992C6.5 17.7659 6.53333 17.8326 6.6 17.8992C6.66667 17.9659 6.73333 17.9992 6.8 17.9992H18.2C18.2667 17.9992 18.3333 17.9659 18.4 17.8992C18.4667 17.8326 18.5 17.7659 18.5 17.6992V14.9992H20V17.6992C20 18.1992 19.825 18.6242 19.475 18.9742C19.125 19.3242 18.7 19.4992 18.2 19.4992H6.8ZM11.75 15.6242V7.22422L9.275 9.67422L8.225 8.59922L12.5 4.32422L16.775 8.59922L15.725 9.67422L13.25 7.22422V15.6242H11.75Z" fill="white"/>
</g>
</svg>
