<svg width="172" height="162" viewBox="0 0 172 162" fill="none" xmlns="http://www.w3.org/2000/svg">
<g id="Group">
<path id="Vector" d="M0.499023 80.7357C0.499023 102.148 9.00508 122.684 24.146 137.824C39.2868 152.965 59.8223 161.471 81.2347 161.471C102.647 161.471 123.183 152.965 138.323 137.824C153.464 122.684 161.97 102.148 161.97 80.7357C161.97 59.3233 153.464 38.7878 138.323 23.6469C123.183 8.50606 102.647 0 81.2347 0C59.8223 0 39.2868 8.50606 24.146 23.6469C9.00508 38.7878 0.499023 59.3233 0.499023 80.7357Z" fill="#D9EDFF"/>
<path id="Vector_2" d="M119.312 131.813H44.0257C42.6778 131.813 41.3851 131.278 40.4319 130.325C39.4788 129.372 38.9434 128.079 38.9434 126.731V29.267C38.9434 27.8618 39.5016 26.5142 40.4952 25.5206C41.4888 24.527 42.8364 23.9688 44.2416 23.9688H119.084C120.489 23.9687 121.836 24.527 122.83 25.5206C123.824 26.5142 124.382 27.8618 124.382 29.267V126.731C124.382 128.077 123.849 129.368 122.898 130.321C121.948 131.274 120.658 131.811 119.312 131.813Z" fill="#B0D9FF"/>
<path id="Vector_3" d="M119.312 131.813H44.0257C42.6778 131.813 41.3851 131.278 40.4319 130.325C39.4788 129.372 38.9434 128.079 38.9434 126.731V29.267C38.9434 27.8618 39.5016 26.5142 40.4952 25.5206C41.4888 24.527 42.8364 23.9688 44.2416 23.9688H119.084C120.489 23.9687 121.836 24.527 122.83 25.5206C123.824 26.5142 124.382 27.8618 124.382 29.267V126.731C124.382 128.077 123.849 129.368 122.898 130.321C121.948 131.274 120.658 131.811 119.312 131.813Z" stroke="#020064" stroke-width="2" stroke-linecap="round" stroke-linejoin="round"/>
<path id="Vector_4" d="M47.3516 32.3672H115.981V123.407H47.3516V32.3672Z" fill="white"/>
<path id="Vector_5" d="M115.98 63.5547L96.0507 85.1515C94.7939 86.5171 94.1304 88.3257 94.2061 90.1801C94.2818 92.0345 95.0904 93.783 96.4544 95.0416C97.3102 95.8306 98.3517 96.3902 99.482 96.6684L93.0029 103.149L93.9939 104.141L85.2422 112.89C84.8504 113.28 84.5825 113.778 84.4723 114.319C84.3621 114.861 84.4144 115.423 84.6228 115.936C84.8311 116.448 85.1861 116.887 85.6432 117.198C86.1003 117.509 86.6391 117.678 87.192 117.684C87.3954 117.683 87.5983 117.663 87.7975 117.621C95.4674 115.991 99.3689 113.635 99.4133 110.611L99.9421 110.081L101.924 112.063L106.799 107.174C107.144 107.451 107.514 107.695 107.905 107.903C109.194 108.589 110.665 108.855 112.112 108.664C113.56 108.473 114.912 107.834 115.978 106.837L115.98 63.5547Z" fill="#B0D9FF"/>
<path id="Vector_6" d="M47.3516 32.3672H115.981V123.407H47.3516V32.3672Z" stroke="#020064" stroke-width="2" stroke-linecap="round" stroke-linejoin="round"/>
<path id="Vector_7" d="M57.1323 54.7812H99.9283" stroke="#020064" stroke-width="4" stroke-linecap="round" stroke-linejoin="round"/>
<path id="Vector_8" d="M57.1323 67.3828H99.9283" stroke="#020064" stroke-width="4" stroke-linecap="round" stroke-linejoin="round"/>
<path id="Vector_9" d="M57.1323 81.3906H86.9601" stroke="#020064" stroke-width="4" stroke-linecap="round" stroke-linejoin="round"/>
<path id="Vector_10" d="M62.4962 19.7656H100.834C101.506 19.7678 102.15 20.0364 102.625 20.5128C103.1 20.9891 103.367 21.6342 103.367 22.3068V35.4263C103.367 36.1008 103.099 36.7477 102.622 37.2246C102.145 37.7016 101.498 37.9695 100.823 37.9695H62.4983C61.8238 37.9695 61.1769 37.7016 60.7 37.2246C60.223 36.7477 59.9551 36.1008 59.9551 35.4263V22.3068C59.9551 21.6328 60.2228 20.9865 60.6994 20.5099C61.1759 20.0334 61.8223 19.7656 62.4962 19.7656Z" fill="white"/>
<path id="Vector_11" d="M62.4962 19.7656H100.834C101.506 19.7678 102.15 20.0364 102.625 20.5128C103.1 20.9891 103.367 21.6342 103.367 22.3068V35.4263C103.367 36.1008 103.099 36.7477 102.622 37.2246C102.145 37.7016 101.498 37.9695 100.823 37.9695H62.4983C61.8238 37.9695 61.1769 37.7016 60.7 37.2246C60.223 36.7477 59.9551 36.1008 59.9551 35.4263V22.3068C59.9551 21.6328 60.2228 20.9865 60.6994 20.5099C61.1759 20.0334 61.8223 19.7656 62.4962 19.7656V19.7656Z" stroke="#020064" stroke-width="2" stroke-linecap="round" stroke-linejoin="round"/>
<path id="Vector_12" d="M69.7588 32.3672H93.5698" stroke="#020064" stroke-width="4" stroke-linecap="round" stroke-linejoin="round"/>
<path id="Vector_13" d="M75.3608 18.3632C75.3608 19.283 75.542 20.1937 75.894 21.0434C76.246 21.8932 76.7619 22.6653 77.4122 23.3156C78.0626 23.966 78.8347 24.4819 79.6844 24.8339C80.5342 25.1859 81.4449 25.367 82.3647 25.367C83.2844 25.367 84.1952 25.1859 85.0449 24.8339C85.8947 24.4819 86.6667 23.966 87.3171 23.3156C87.9675 22.6653 88.4834 21.8932 88.8354 21.0434C89.1873 20.1937 89.3685 19.283 89.3685 18.3632C89.3685 17.4434 89.1873 16.5327 88.8354 15.6829C88.4834 14.8332 87.9675 14.0611 87.3171 13.4107C86.6667 12.7604 85.8947 12.2445 85.0449 11.8925C84.1952 11.5405 83.2844 11.3594 82.3647 11.3594C81.4449 11.3594 80.5342 11.5405 79.6844 11.8925C78.8347 12.2445 78.0626 12.7604 77.4122 13.4107C76.7619 14.0611 76.246 14.8332 75.894 15.6829C75.542 16.5327 75.3608 17.4434 75.3608 18.3632Z" fill="white"/>
<path id="Vector_14" d="M75.3608 18.3632C75.3608 19.283 75.542 20.1937 75.894 21.0434C76.246 21.8932 76.7619 22.6653 77.4122 23.3156C78.0626 23.966 78.8347 24.4819 79.6844 24.8339C80.5342 25.1859 81.4449 25.367 82.3647 25.367C83.2844 25.367 84.1952 25.1859 85.0449 24.8339C85.8947 24.4819 86.6667 23.966 87.3171 23.3156C87.9675 22.6653 88.4834 21.8932 88.8354 21.0434C89.1873 20.1937 89.3685 19.283 89.3685 18.3632C89.3685 17.4434 89.1873 16.5327 88.8354 15.6829C88.4834 14.8332 87.9675 14.0611 87.3171 13.4107C86.6667 12.7604 85.8947 12.2445 85.0449 11.8925C84.1952 11.5405 83.2844 11.3594 82.3647 11.3594C81.4449 11.3594 80.5342 11.5405 79.6844 11.8925C78.8347 12.2445 78.0626 12.7604 77.4122 13.4107C76.7619 14.0611 76.246 14.8332 75.894 15.6829C75.542 16.5327 75.3608 17.4434 75.3608 18.3632V18.3632Z" stroke="#020064" stroke-width="2" stroke-linecap="round" stroke-linejoin="round"/>
<path id="Vector_15" d="M111.152 80.5171L135.685 89.6685L146.005 73.1177L119.33 65.9141L111.152 80.5171Z" fill="#D9EDFF"/>
<path id="Vector_16" d="M150.266 108.45L169.267 89.4492C169.341 89.3776 169.419 89.3103 169.501 89.2474C163.141 83.7291 161.573 72.0386 149.341 65.6524C133.241 57.2438 113.327 59.25 95.8358 81.0931C95.4353 81.5685 95.1337 82.119 94.9487 82.7124C94.7636 83.3058 94.6988 83.9301 94.7581 84.5488C94.8173 85.1676 94.9994 85.7683 95.2937 86.3158C95.588 86.8633 95.9886 87.3466 96.472 87.7373C96.9554 88.1281 97.5119 88.4184 98.109 88.5914C98.706 88.7644 99.3315 88.8166 99.9489 88.7448C100.566 88.673 101.163 88.4788 101.705 88.1734C102.246 87.8681 102.721 87.4578 103.102 86.9666C104.262 85.5322 105.427 84.1967 106.598 82.9601C107.009 83.3994 107.502 83.7545 108.049 84.0056C126.35 97.8619 130.05 99.6219 134.526 101.364C141.449 104.054 144.505 105.354 149.596 109.962C149.626 109.393 149.865 108.855 150.266 108.45ZM137.728 78.8749C136.186 80.7406 134.04 82.0087 131.662 82.4598C129.284 82.911 126.823 82.5167 124.705 81.3454L113.882 76.3963C120.198 71.7742 126.57 69.8446 132.916 70.6721C138.315 71.3664 139.564 76.142 137.728 78.8749Z" fill="#B06C49"/>
<path id="Vector_17" d="M50.8408 148.027C50.8408 148.957 54.041 149.848 59.7374 150.505C65.4338 151.162 73.1597 151.531 81.2156 151.531C89.2715 151.531 96.9975 151.162 102.694 150.505C108.39 149.848 111.59 148.957 111.59 148.027C111.59 147.098 108.39 146.207 102.694 145.55C96.9975 144.893 89.2715 144.523 81.2156 144.523C73.1597 144.523 65.4338 144.893 59.7374 145.55C54.041 146.207 50.8408 147.098 50.8408 148.027Z" fill="#B0D9FF"/>
<path id="Vector_18" d="M61.4091 95.9453C60.6849 96.669 60.1504 97.5601 59.853 98.5398C59.5555 99.5194 59.5043 100.557 59.7038 101.561C59.9033 102.566 60.3475 103.505 60.9968 104.296C61.6462 105.088 62.4807 105.707 63.4266 106.099C64.3724 106.491 65.4002 106.643 66.4191 106.543C67.438 106.443 68.4164 106.093 69.2676 105.524C70.1188 104.955 70.8166 104.185 71.2991 103.282C71.7817 102.379 72.0341 101.371 72.0339 100.347V101.591C72.0206 102.253 72.1395 102.912 72.3838 103.528C72.6281 104.144 72.9929 104.705 73.4566 105.178C73.9204 105.651 74.474 106.027 75.0849 106.284C75.6957 106.54 76.3517 106.672 77.0143 106.672C77.6769 106.672 78.3328 106.54 78.9437 106.284C79.5546 106.027 80.1082 105.651 80.5719 105.178C81.0357 104.705 81.4005 104.144 81.6448 103.528C81.8891 102.912 82.008 102.253 81.9947 101.591C81.9947 102.911 82.5193 104.178 83.4531 105.112C84.3869 106.046 85.6534 106.57 86.9741 106.57H90.7081" stroke="#020064" stroke-width="4" stroke-linecap="round" stroke-linejoin="round"/>
<path id="Vector_19" d="M123.167 82.4285C123.78 82.4613 124.381 82.6145 124.935 82.8795C125.488 83.1445 125.985 83.5159 126.395 83.9727C126.805 84.4295 127.122 84.9626 127.326 85.5416C127.53 86.1207 127.618 86.7342 127.585 87.3473L126.764 102.514C126.73 103.126 126.577 103.727 126.312 104.28C126.046 104.833 125.675 105.329 125.218 105.739C124.761 106.149 124.228 106.465 123.649 106.668C123.07 106.872 122.457 106.96 121.844 106.927C121.231 106.893 120.631 106.74 120.077 106.475C119.524 106.209 119.028 105.838 118.618 105.381C118.209 104.924 117.893 104.391 117.689 103.812C117.485 103.233 117.397 102.62 117.431 102.007L118.252 86.8427C118.319 85.6058 118.874 84.4459 119.796 83.6182C120.717 82.7904 121.93 82.3625 123.167 82.4285Z" fill="#D9EDFF" stroke="#020064" stroke-width="4" stroke-linecap="round" stroke-linejoin="round"/>
<path id="Vector_20" d="M118.34 80.97C119.434 81.553 120.251 82.5464 120.613 83.7318C120.974 84.9172 120.85 86.1977 120.268 87.2917L114.691 98.1466C114.108 99.2405 113.115 100.058 111.929 100.42C110.744 100.781 109.463 100.657 108.369 100.074C107.275 99.4914 106.458 98.4981 106.096 97.3125C105.735 96.127 105.859 94.8464 106.442 93.7525L112.019 82.8976C112.601 81.804 113.595 80.9866 114.78 80.6251C115.966 80.2637 117.246 80.3877 118.34 80.97Z" fill="#D9EDFF" stroke="#020064" stroke-width="4" stroke-linecap="round" stroke-linejoin="round"/>
<path id="Vector_21" d="M169.267 89.4492C169.341 89.3776 169.419 89.3103 169.501 89.2474C163.141 83.7291 161.573 72.0386 149.341 65.6524C133.241 57.2438 113.327 59.25 95.8358 81.0931C95.4353 81.5685 95.1337 82.119 94.9487 82.7124C94.7636 83.3058 94.6988 83.9301 94.7581 84.5488C94.8173 85.1676 94.9994 85.7683 95.2937 86.3158C95.588 86.8633 95.9886 87.3466 96.472 87.7373C96.9554 88.1281 97.5119 88.4184 98.109 88.5914C98.706 88.7644 99.3315 88.8166 99.9489 88.7448C100.566 88.673 101.163 88.4788 101.705 88.1734C102.246 87.8681 102.721 87.4578 103.102 86.9666C104.262 85.5322 105.427 84.1967 106.598 82.9601C107.009 83.3994 107.502 83.7545 108.049 84.0056C126.35 97.8619 130.05 99.6219 134.526 101.364C141.449 104.054 144.505 105.354 149.596 109.962L169.267 89.4492ZM137.736 78.8789C136.193 80.7459 134.045 82.0145 131.666 82.465C129.286 82.9154 126.823 82.5193 124.705 81.3454L113.882 76.3963C120.198 71.7742 126.57 69.8446 132.916 70.6721C138.315 71.3664 139.564 76.142 137.728 78.8749L137.736 78.8789Z" stroke="#2F1A15" stroke-width="4" stroke-linecap="round" stroke-linejoin="round"/>
<path id="Vector_22" d="M133.678 79.7972L127.587 71.2251L146.56 57.7483C147.07 57.3856 147.647 57.127 148.258 56.9873C148.868 56.8476 149.5 56.8296 150.117 56.9342C150.735 57.0387 151.326 57.2639 151.856 57.5969C152.386 57.9298 152.846 58.364 153.208 58.8746L153.776 59.6718C154.138 60.1823 154.397 60.7592 154.537 61.3697C154.676 61.9801 154.694 62.612 154.59 63.2294C154.485 63.8468 154.26 64.4376 153.927 64.968C153.594 65.4983 153.16 65.9579 152.649 66.3204L133.678 79.7972Z" fill="#B0D9FF"/>
<path id="Vector_23" d="M133.678 79.7972L127.587 71.2251L146.56 57.7483C147.07 57.3856 147.647 57.127 148.258 56.9873C148.868 56.8476 149.5 56.8296 150.117 56.9342C150.735 57.0387 151.326 57.2639 151.856 57.5969C152.386 57.9298 152.846 58.364 153.208 58.8746L153.776 59.6718C154.138 60.1823 154.397 60.7592 154.537 61.3697C154.676 61.9801 154.694 62.612 154.59 63.2294C154.485 63.8468 154.26 64.4376 153.927 64.968C153.594 65.4983 153.16 65.9579 152.649 66.3204L133.678 79.7972Z" stroke="#020064" stroke-width="4" stroke-linecap="round" stroke-linejoin="round"/>
<path id="Vector_24" d="M128.418 66.3451L141.754 56.8728C142.126 56.5965 142.549 56.3984 143 56.2902C143.45 56.1821 143.917 56.1662 144.374 56.2435C144.83 56.3208 145.267 56.4897 145.656 56.7401C146.046 56.9905 146.381 57.3171 146.641 57.7003" stroke="#020064" stroke-width="4" stroke-linecap="round" stroke-linejoin="round"/>
<path id="Vector_25" d="M97.7567 95.2812L88.3894 101.942C88.1824 102.086 88.0277 102.293 87.9484 102.533C87.8691 102.772 87.8694 103.031 87.9494 103.27C88.0295 103.509 88.1848 103.716 88.3922 103.859C88.5996 104.002 88.8479 104.075 89.0998 104.065C93.0276 103.904 98.6408 103.191 98.558 100.45L100.463 99.098L97.7567 95.2812Z" fill="#B0D9FF" stroke="#020064" stroke-width="4" stroke-linecap="round" stroke-linejoin="round"/>
<path id="Vector_26" d="M101.146 100.049L97.7628 95.2851C97.5836 95.0324 97.512 94.7189 97.5639 94.4135C97.6157 94.108 97.7867 93.8357 98.0393 93.6563L102.801 90.2734L107.538 96.9341L102.76 100.315C102.51 100.491 102.2 100.561 101.899 100.512C101.597 100.462 101.326 100.295 101.146 100.049Z" fill="white"/>
<path id="Vector_27" d="M101.146 100.049L97.7628 95.2851C97.5836 95.0324 97.512 94.7189 97.5639 94.4135C97.6157 94.108 97.7867 93.8357 98.0393 93.6563L102.801 90.2734L107.538 96.9341L102.76 100.315C102.51 100.491 102.2 100.561 101.899 100.512C101.597 100.462 101.326 100.295 101.146 100.049V100.049Z" stroke="#020064" stroke-width="4" stroke-linecap="round" stroke-linejoin="round"/>
<path id="Vector_28" d="M106.858 95.9862L103.475 91.2309C103.297 90.9808 103.171 90.6982 103.102 90.3991C103.033 90.1 103.025 89.7904 103.076 89.4878C103.127 89.1853 103.237 88.8958 103.4 88.6359C103.563 88.376 103.776 88.1508 104.026 87.9732L127.589 71.2266L133.678 79.7987L110.116 96.5392C109.866 96.717 109.583 96.8437 109.284 96.9121C108.985 96.9805 108.675 96.9892 108.372 96.9379C108.07 96.8865 107.78 96.776 107.52 96.6127C107.261 96.4494 107.036 96.2365 106.858 95.9862Z" fill="#B0D9FF"/>
<path id="Vector_29" d="M106.858 95.9862L103.475 91.2308C103.297 90.9808 103.171 90.6982 103.102 90.3991C103.033 90.1 103.025 89.7904 103.076 89.4878C103.127 89.1853 103.237 88.8958 103.4 88.6359C103.563 88.376 103.776 88.1508 104.026 87.9732L127.589 71.2266L133.678 79.7987L110.116 96.5392C109.866 96.717 109.583 96.8437 109.284 96.9121C108.985 96.9805 108.675 96.9892 108.372 96.9379C108.07 96.8865 107.78 96.776 107.52 96.6127C107.261 96.4494 107.036 96.2365 106.858 95.9862Z" stroke="#020064" stroke-width="4" stroke-linecap="round" stroke-linejoin="round"/>
<path id="Vector_30" d="M137.725 78.8754C136.183 80.7412 134.037 82.0093 131.659 82.4604C129.281 82.9115 126.82 82.5173 124.702 81.346L111.926 75.4926C111.366 75.2263 110.759 75.0739 110.14 75.0444C109.521 75.0148 108.902 75.1088 108.319 75.3207C107.737 75.5326 107.202 75.8582 106.747 76.2787C106.291 76.6991 105.924 77.206 105.666 77.7697C105.408 78.3335 105.265 78.9429 105.245 79.5624C105.225 80.182 105.328 80.7993 105.549 81.3786C105.77 81.9578 106.104 82.4873 106.531 82.9364C106.958 83.3854 107.471 83.7449 108.038 83.9941C126.339 97.8524 130.039 99.6104 134.516 101.352" fill="white"/>
<path id="Vector_31" d="M137.725 78.8754C136.183 80.7412 134.037 82.0093 131.659 82.4604C129.281 82.9115 126.82 82.5173 124.702 81.346L111.926 75.4926C111.366 75.2263 110.759 75.0739 110.14 75.0444C109.521 75.0148 108.902 75.1088 108.319 75.3207C107.737 75.5326 107.202 75.8582 106.747 76.2787C106.291 76.6991 105.924 77.206 105.666 77.7697C105.408 78.3335 105.265 78.9429 105.245 79.5624C105.225 80.182 105.328 80.7993 105.549 81.3786C105.77 81.9578 106.104 82.4873 106.531 82.9364C106.958 83.3854 107.471 83.7449 108.038 83.9941C126.339 97.8524 130.039 99.6104 134.516 101.352" stroke="#020064" stroke-width="4" stroke-linecap="round" stroke-linejoin="round"/>
<path id="Vector_32" d="M137.725 78.8754C136.183 80.7412 134.037 82.0093 131.659 82.4604C129.281 82.9115 126.82 82.5173 124.702 81.346L111.926 75.4926C111.366 75.2263 110.759 75.0739 110.14 75.0444C109.521 75.0148 108.902 75.1088 108.319 75.3207C107.737 75.5326 107.202 75.8582 106.747 76.2787C106.291 76.6991 105.924 77.206 105.666 77.7697C105.408 78.3335 105.265 78.9429 105.245 79.5624C105.225 80.182 105.328 80.7993 105.549 81.3786C105.77 81.9578 106.104 82.4873 106.531 82.9364C106.958 83.3854 107.471 83.7449 108.038 83.9941C126.339 97.8524 130.039 99.6104 134.516 101.352" fill="#B06C49"/>
<path id="Vector_33" d="M137.725 78.8754C136.183 80.7412 134.037 82.0093 131.659 82.4604C129.281 82.9115 126.82 82.5173 124.702 81.346L111.926 75.4926C111.366 75.2263 110.759 75.0739 110.14 75.0444C109.521 75.0148 108.902 75.1088 108.319 75.3207C107.737 75.5326 107.202 75.8582 106.747 76.2787C106.291 76.6991 105.924 77.206 105.666 77.7697C105.408 78.3335 105.265 78.9429 105.245 79.5624C105.225 80.182 105.328 80.7993 105.549 81.3786C105.77 81.9578 106.104 82.4873 106.531 82.9364C106.958 83.3854 107.471 83.7449 108.038 83.9941C126.339 97.8524 130.039 99.6104 134.516 101.352" stroke="#020064" stroke-width="4" stroke-linecap="round" stroke-linejoin="round"/>
</g>
</svg>
