<svg width="24" height="24" viewBox="0 0 24 24" fill="none" xmlns="http://www.w3.org/2000/svg">
<g id="invoice / 24 / Outline">
<path id="Vector" d="M9.00001 11.9962H7.00001C6.73479 11.9962 6.48044 12.1015 6.2929 12.2891C6.10537 12.4766 6.00001 12.7309 6.00001 12.9962C6.00001 13.2614 6.10537 13.5157 6.2929 13.7033C6.48044 13.8908 6.73479 13.9962 7.00001 13.9962H9.00001C9.26522 13.9962 9.51958 13.8908 9.70711 13.7033C9.89465 13.5157 10 13.2614 10 12.9962C10 12.7309 9.89465 12.4766 9.70711 12.2891C9.51958 12.1015 9.26522 11.9962 9.00001 11.9962ZM8.00001 9.99616H12C12.2652 9.99616 12.5196 9.8908 12.7071 9.70327C12.8947 9.51573 13 9.26138 13 8.99616C13 8.73095 12.8947 8.47659 12.7071 8.28906C12.5196 8.10152 12.2652 7.99616 12 7.99616H8.00001C7.73479 7.99616 7.48044 8.10152 7.2929 8.28906C7.10537 8.47659 7.00001 8.73095 7.00001 8.99616C7.00001 9.26138 7.10537 9.51573 7.2929 9.70327C7.48044 9.8908 7.73479 9.99616 8.00001 9.99616ZM9.00001 15.9962H7.00001C6.73479 15.9962 6.48044 16.1015 6.2929 16.2891C6.10537 16.4766 6.00001 16.7309 6.00001 16.9962C6.00001 17.2614 6.10537 17.5157 6.2929 17.7033C6.48044 17.8908 6.73479 17.9962 7.00001 17.9962H9.00001C9.26522 17.9962 9.51958 17.8908 9.70711 17.7033C9.89465 17.5157 10 17.2614 10 16.9962C10 16.7309 9.89465 16.4766 9.70711 16.2891C9.51958 16.1015 9.26522 15.9962 9.00001 15.9962ZM21 11.9962H18V2.99616C18.0007 2.81995 17.9548 2.64669 17.867 2.49391C17.7792 2.34113 17.6526 2.21427 17.5 2.12616C17.348 2.03839 17.1755 1.99219 17 1.99219C16.8245 1.99219 16.652 2.03839 16.5 2.12616L13.5 3.84616L10.5 2.12616C10.348 2.03839 10.1755 1.99219 10 1.99219C9.82447 1.99219 9.65203 2.03839 9.50001 2.12616L6.50001 3.84616L3.50001 2.12616C3.34799 2.03839 3.17554 1.99219 3.00001 1.99219C2.82447 1.99219 2.65203 2.03839 2.50001 2.12616C2.3474 2.21427 2.22079 2.34113 2.13299 2.49391C2.04518 2.64669 1.99931 2.81995 2.00001 2.99616V18.9962C2.00001 19.7918 2.31608 20.5549 2.87869 21.1175C3.4413 21.6801 4.20436 21.9962 5.00001 21.9962H19C19.7957 21.9962 20.5587 21.6801 21.1213 21.1175C21.6839 20.5549 22 19.7918 22 18.9962V12.9962C22 12.7309 21.8947 12.4766 21.7071 12.2891C21.5196 12.1015 21.2652 11.9962 21 11.9962ZM5.00001 19.9962C4.73479 19.9962 4.48044 19.8908 4.2929 19.7033C4.10536 19.5157 4.00001 19.2614 4.00001 18.9962V4.72616L6.00001 5.86616C6.15435 5.94677 6.32589 5.98887 6.50001 5.98887C6.67413 5.98887 6.84567 5.94677 7.00001 5.86616L10 4.14616L13 5.86616C13.1543 5.94677 13.3259 5.98887 13.5 5.98887C13.6741 5.98887 13.8457 5.94677 14 5.86616L16 4.72616V18.9962C16.0027 19.3373 16.0636 19.6755 16.18 19.9962H5.00001ZM20 18.9962C20 19.2614 19.8947 19.5157 19.7071 19.7033C19.5196 19.8908 19.2652 19.9962 19 19.9962C18.7348 19.9962 18.4804 19.8908 18.2929 19.7033C18.1054 19.5157 18 19.2614 18 18.9962V13.9962H20V18.9962ZM13.56 16.1662C13.5043 16.1283 13.4437 16.0981 13.38 16.0762C13.3205 16.0457 13.2562 16.0254 13.19 16.0162C13.0294 15.984 12.8633 15.9918 12.7063 16.0389C12.5494 16.086 12.4064 16.1709 12.29 16.2862C12.1073 16.4778 12.0037 16.7314 12 16.9962C11.9984 17.1262 12.0222 17.2552 12.07 17.3762C12.1244 17.4977 12.1987 17.6092 12.29 17.7062C12.3872 17.7945 12.4988 17.8655 12.62 17.9162C12.7397 17.9691 12.8691 17.9964 13 17.9964C13.1309 17.9964 13.2603 17.9691 13.38 17.9162C13.5012 17.8655 13.6128 17.7945 13.71 17.7062C13.8027 17.6127 13.876 17.5019 13.9258 17.3801C13.9755 17.2582 14.0008 17.1278 14 16.9962C13.9963 16.7314 13.8927 16.4778 13.71 16.2862C13.6625 16.2432 13.6124 16.2031 13.56 16.1662ZM13.7 12.2862C13.5832 12.1725 13.4404 12.089 13.2841 12.0431C13.1277 11.9972 12.9624 11.9902 12.8027 12.0227C12.643 12.0552 12.4937 12.1263 12.3677 12.2297C12.2418 12.3332 12.143 12.4658 12.08 12.6162C12.0178 12.7677 11.9937 12.9321 12.0099 13.0951C12.0261 13.2581 12.0821 13.4146 12.1729 13.5509C12.2638 13.6872 12.3867 13.799 12.5309 13.8767C12.6751 13.9543 12.8362 13.9953 13 13.9962C13.2652 13.9962 13.5196 13.8908 13.7071 13.7033C13.8947 13.5157 14 13.2614 14 12.9962C13.9984 12.8655 13.9712 12.7364 13.92 12.6162C13.8718 12.4913 13.7967 12.3786 13.7 12.2862Z" fill="black"/>
</g>
</svg>
