<svg width="21" height="20" viewBox="0 0 21 20" fill="none" xmlns="http://www.w3.org/2000/svg">
<g id="SVG">
<path id="Vector" d="M13 8.75C13 9.41304 12.7366 10.0489 12.2678 10.5178C11.7989 10.9866 11.163 11.25 10.5 11.25C9.83696 11.25 9.20107 10.9866 8.73223 10.5178C8.26339 10.0489 8 9.41304 8 8.75C8 8.08696 8.26339 7.45107 8.73223 6.98223C9.20107 6.51339 9.83696 6.25 10.5 6.25C11.163 6.25 11.7989 6.51339 12.2678 6.98223C12.7366 7.45107 13 8.08696 13 8.75Z" stroke="white" stroke-width="1.25" stroke-linecap="round" stroke-linejoin="round"/>
<path id="Vector_2" d="M16.75 8.75C16.75 14.7017 10.5 18.125 10.5 18.125C10.5 18.125 4.25 14.7017 4.25 8.75C4.25 7.0924 4.90848 5.50268 6.08058 4.33058C7.25268 3.15848 8.8424 2.5 10.5 2.5C12.1576 2.5 13.7473 3.15848 14.9194 4.33058C16.0915 5.50268 16.75 7.0924 16.75 8.75Z" stroke="white" stroke-width="1.25" stroke-linecap="round" stroke-linejoin="round"/>
</g>
</svg>
