<svg width="21" height="20" viewBox="0 0 21 20" fill="none" xmlns="http://www.w3.org/2000/svg">
<g id="SVG">
<path id="Vector" d="M14.25 9.99995C14.25 10.9945 13.8549 11.9483 13.1517 12.6516C12.4484 13.3549 11.4946 13.7499 10.5 13.7499C9.50544 13.7499 8.55161 13.3549 7.84835 12.6516C7.14509 11.9483 6.75 10.9945 6.75 9.99995C6.75 9.00538 7.14509 8.05156 7.84835 7.3483C8.55161 6.64504 9.50544 6.24995 10.5 6.24995C11.4946 6.24995 12.4484 6.64504 13.1517 7.3483C13.8549 8.05156 14.25 9.00538 14.25 9.99995ZM14.25 9.99995C14.25 11.3808 15.0892 12.4999 16.125 12.4999C17.1608 12.4999 18 11.3808 18 9.99995C18 8.26478 17.3983 6.5833 16.2975 5.24201C15.1968 3.90072 13.6649 2.98261 11.9631 2.64411C10.2613 2.30561 8.49475 2.56767 6.96448 3.38563C5.4342 4.20359 4.23489 5.52685 3.57088 7.12994C2.90688 8.73302 2.81926 10.5168 3.32296 12.1772C3.82667 13.8376 4.89052 15.2721 6.33327 16.2361C7.77601 17.2001 9.50837 17.634 11.2352 17.4639C12.962 17.2938 14.5764 16.5302 15.8033 15.3033M14.25 9.99995V6.87495" stroke="white" stroke-width="1.25" stroke-linecap="round"/>
</g>
</svg>
