<svg width="24" height="24" viewBox="0 0 24 24" fill="none" xmlns="http://www.w3.org/2000/svg">
<g id="Briefcase">
<rect x="0.000427246" width="24" height="24" rx="8" fill="white"/>
<path id="Vector" d="M14.2504 10.5C14.2504 10.6989 14.1714 10.8897 14.0308 11.0303C13.8901 11.171 13.6993 11.25 13.5004 11.25H10.5004C10.3015 11.25 10.1107 11.171 9.9701 11.0303C9.82944 10.8897 9.75043 10.6989 9.75043 10.5C9.75043 10.3011 9.82944 10.1103 9.9701 9.96967C10.1107 9.82902 10.3015 9.75 10.5004 9.75H13.5004C13.6993 9.75 13.8901 9.82902 14.0308 9.96967C14.1714 10.1103 14.2504 10.3011 14.2504 10.5ZM21.7504 6.75V18.75C21.7504 19.1478 21.5924 19.5294 21.3111 19.8107C21.0298 20.092 20.6483 20.25 20.2504 20.25H3.75043C3.3526 20.25 2.97107 20.092 2.68977 19.8107C2.40846 19.5294 2.25043 19.1478 2.25043 18.75V6.75C2.25043 6.35218 2.40846 5.97064 2.68977 5.68934C2.97107 5.40804 3.3526 5.25 3.75043 5.25H7.50043V4.5C7.50043 3.90326 7.73748 3.33097 8.15944 2.90901C8.58139 2.48705 9.15369 2.25 9.75043 2.25H14.2504C14.8472 2.25 15.4195 2.48705 15.8414 2.90901C16.2634 3.33097 16.5004 3.90326 16.5004 4.5V5.25H20.2504C20.6483 5.25 21.0298 5.40804 21.3111 5.68934C21.5924 5.97064 21.7504 6.35218 21.7504 6.75ZM9.00043 5.25H15.0004V4.5C15.0004 4.30109 14.9214 4.11032 14.7808 3.96967C14.6401 3.82902 14.4493 3.75 14.2504 3.75H9.75043C9.55152 3.75 9.36075 3.82902 9.2201 3.96967C9.07944 4.11032 9.00043 4.30109 9.00043 4.5V5.25ZM20.2504 10.6509V6.75H3.75043V10.6509C6.28189 12.0289 9.11825 12.7505 12.0004 12.75C14.8826 12.7505 17.719 12.0289 20.2504 10.6509Z" fill="#2E7D32"/>
</g>
</svg>
