<svg width="24" height="24" viewBox="0 0 24 24" fill="none" xmlns="http://www.w3.org/2000/svg">
<g id="SVG">
<path id="Vector" d="M21.1199 12.0004C21.1199 6.70119 16.8191 2.40039 11.5199 2.40039C6.22072 2.40039 1.91992 6.70119 1.91992 12.0004C1.91992 17.2996 6.22072 21.6004 11.5199 21.6004L21.1199 12.0004Z" fill="#3482FF"/>
<path id="Vector_2" d="M9.11982 2.40039C7.24782 8.00679 7.24782 15.994 9.11982 21.6004M14.3998 2.40039C15.331 5.20359 15.8014 9.08199 15.8014 12.0004" stroke="white" stroke-width="1.44" stroke-linecap="round" stroke-linejoin="round"/>
<path id="Vector_3" d="M1.91992 14.4009C4.72312 15.3321 8.60152 16.2825 11.5199 16.2825M1.91992 9.11895C7.52632 7.24695 15.5135 7.73079 21.1199 9.60183" stroke="white" stroke-width="1.44" stroke-linecap="round" stroke-linejoin="round"/>
<path id="Vector_4" d="M16.8001 23.0405C18.455 23.0405 20.0422 22.3831 21.2124 21.2129C22.3826 20.0427 23.0401 18.4555 23.0401 16.8005C23.0401 15.1456 22.3826 13.5584 21.2124 12.3882C20.0422 11.218 18.455 10.5605 16.8001 10.5605C15.1451 10.5605 13.5579 11.218 12.3877 12.3882C11.2175 13.5584 10.5601 15.1456 10.5601 16.8005C10.5601 18.4555 11.2175 20.0427 12.3877 21.2129C13.5579 22.3831 15.1451 23.0405 16.8001 23.0405Z" fill="#3482FF" stroke="white" stroke-width="0.96" stroke-linecap="round" stroke-linejoin="round"/>
<path id="Vector_5" d="M13.4399 20.1605L16.5887 12.4805H17.9951L21.1199 20.1605H19.5628L17.8339 15.7934C17.7758 15.6561 17.7217 15.5172 17.6716 15.3768C17.605 15.1712 17.5358 14.9664 17.4643 14.7624C17.3448 14.4128 17.2296 14.0617 17.1187 13.7093L17.4067 13.6987C17.2916 14.0549 17.1725 14.4098 17.0495 14.7633C16.9804 14.9601 16.9113 15.1502 16.8422 15.3326C16.7807 15.515 16.7222 15.6801 16.6694 15.827L14.9385 20.1605H13.4399ZM14.8703 18.4046L15.3887 17.1653H19.0675L19.6204 18.4046H14.8703Z" fill="#EBEBEB"/>
</g>
</svg>
