<svg width="65" height="64" viewBox="0 0 65 64" fill="none" xmlns="http://www.w3.org/2000/svg">
<g id="ico_cta_steps_1.svg">
<path id="Vector" d="M13.9525 22.2847C12.9354 21.2529 12.3675 19.8609 12.3726 18.412C12.3778 16.9632 12.9556 15.5753 13.9801 14.5508C15.0045 13.5263 16.3925 12.9485 17.8413 12.9434C19.2901 12.9382 20.6822 13.5061 21.7139 14.5233" fill="#34B849"/>
<path id="Vector_2" d="M44.3208 14.5233C45.3526 13.5061 46.7446 12.9382 48.1934 12.9434C49.6422 12.9485 51.0302 13.5263 52.0547 14.5508C53.0791 15.5753 53.6569 16.9632 53.6621 18.412C53.6673 19.8609 53.0993 21.2529 52.0822 22.2847" fill="#34B849"/>
<path id="Vector_3" d="M50.5695 52.4942C50.3916 52.4971 50.215 52.4632 50.0508 52.3948C49.8865 52.3263 49.7382 52.2246 49.6151 52.0961L44.4402 46.9632C44.2031 46.7068 44.0745 46.3687 44.0813 46.0197C44.0882 45.6707 44.2299 45.3379 44.4767 45.091C44.7236 44.8441 45.0564 44.7024 45.4055 44.6956C45.7545 44.6888 46.0926 44.8174 46.3489 45.0544L51.4835 50.189C51.615 50.3107 51.7201 50.4583 51.7918 50.6226C51.8636 50.7868 51.9007 50.9641 51.9007 51.1434C51.9007 51.3226 51.8636 51.5 51.7918 51.6642C51.7201 51.8284 51.615 51.976 51.4835 52.0977C51.3681 52.225 51.2268 52.3261 51.0692 52.3944C50.9117 52.4628 50.7412 52.4967 50.5695 52.4942Z" fill="white"/>
<path id="Vector_4" d="M15.1805 52.4943C14.9702 52.4937 14.7647 52.4312 14.5901 52.3145C14.4154 52.1978 14.2793 52.0321 14.199 51.8384C14.1186 51.6447 14.0976 51.4317 14.1386 51.2261C14.1796 51.0206 14.2807 50.8317 14.4292 50.6833L28.2433 36.9125C28.3405 36.8078 28.4579 36.7237 28.5885 36.6653C28.719 36.6068 28.8601 36.5753 29.0032 36.5725C29.1463 36.5697 29.2884 36.5957 29.4212 36.649C29.5539 36.7023 29.6745 36.7818 29.7757 36.8827C29.877 36.9835 29.9567 37.1038 30.0102 37.2361C30.0637 37.3684 30.0897 37.5101 30.087 37.6527C30.0841 37.7953 30.0525 37.9358 29.9939 38.066C29.9353 38.1961 29.8509 38.3132 29.7458 38.41L15.9617 52.1821C15.8589 52.2833 15.7368 52.363 15.6026 52.4166C15.4685 52.4702 15.3249 52.4967 15.1805 52.4943Z" fill="white"/>
<path id="Vector_5" d="M33.0172 34.9816C32.8331 34.9859 32.65 34.953 32.479 34.8845C32.308 34.8162 32.1527 34.7138 32.0224 34.5835C31.8922 34.4533 31.7898 34.2979 31.7213 34.127C31.653 33.9559 31.6199 33.7728 31.6244 33.5886V13.1704C31.6244 12.801 31.7712 12.4466 32.0325 12.1853C32.2938 11.9241 32.6481 11.7773 33.0175 11.7773C33.387 11.7773 33.7414 11.9241 34.0027 12.1853C34.2639 12.4466 34.4107 12.801 34.4107 13.1704V33.5886C34.4063 33.9568 34.2581 34.3086 33.9977 34.5689C33.7373 34.8292 33.3854 34.9773 33.0172 34.9816Z" fill="white"/>
<path id="Vector_6" d="M38.3906 32.3127H35.9625C35.6495 31.6016 35.0814 31.0335 34.3704 30.7205L34.3305 24.4328C34.3283 24.2628 34.2926 24.0948 34.2253 23.9386C34.158 23.7824 34.0605 23.6411 33.9385 23.5227C33.8164 23.4043 33.6721 23.3111 33.514 23.2486C33.3558 23.1861 33.1868 23.1554 33.0168 23.1584C32.6694 23.1613 32.3368 23.3007 32.0912 23.5464C31.8454 23.7922 31.7061 24.1246 31.7031 24.4721L31.743 30.7211C31.18 30.9676 30.7023 31.3748 30.3695 31.8916C30.0368 32.4083 29.8639 33.0118 29.8724 33.6263C29.8706 34.0502 29.9528 34.4703 30.1142 34.8623C30.2756 35.2542 30.513 35.6103 30.8127 35.9101C31.1125 36.2098 31.4686 36.4473 31.8606 36.6086C32.2526 36.7701 32.6726 36.8522 33.0965 36.8505C33.707 36.8402 34.3024 36.6597 34.8157 36.3292C35.329 35.9986 35.7398 35.5313 36.0018 34.9798L38.472 34.94C38.6429 34.9411 38.8123 34.9076 38.9701 34.8414C39.1278 34.7753 39.2704 34.678 39.3894 34.5552C39.5084 34.4325 39.6014 34.2868 39.6626 34.1272C39.7239 33.9675 39.7521 33.7972 39.7458 33.6263C39.7434 33.451 39.7064 33.2779 39.6369 33.1169C39.5675 32.9559 39.4669 32.8102 39.341 32.6881C39.215 32.566 39.0662 32.47 38.9032 32.4056C38.7401 32.3412 38.5659 32.3096 38.3906 32.3127Z" fill="white"/>
<path id="Vector_7" d="M33.0168 52.4933C29.2774 52.4854 25.6245 51.3688 22.5198 49.2847C19.415 47.2006 16.998 44.2427 15.5745 40.7849C14.1509 37.3272 13.7848 33.5249 14.5221 29.859C15.2596 26.1932 17.0676 22.8282 19.7175 20.1899C22.3674 17.5516 25.7401 15.7583 29.4092 15.0369C33.0782 14.3154 36.8789 14.6982 40.3304 16.1368C43.7819 17.5756 46.7292 20.0054 48.7998 23.1192C50.8703 26.2329 51.9709 29.8908 51.9625 33.6301C51.9289 38.6369 49.9194 43.4277 46.3714 46.9604C42.8232 50.493 38.0237 52.4815 33.0168 52.4933ZM33.0168 17.4684C29.8207 17.4684 26.6965 18.4162 24.039 20.1918C21.3817 21.9675 19.3104 24.4913 18.0874 27.4441C16.8644 30.3969 16.5444 33.646 17.1679 36.7806C17.7914 39.9153 19.3306 42.7946 21.5906 45.0545C23.8505 47.3144 26.73 48.8535 29.8646 49.4769C32.9992 50.1004 36.2484 49.7803 39.2011 48.557C42.1539 47.3339 44.6776 45.2626 46.4531 42.6051C48.2287 39.9477 49.1763 36.8234 49.1762 33.6273C49.1738 29.3424 47.4704 25.2337 44.4404 22.2039C41.4105 19.174 37.3018 17.4708 33.0168 17.4684Z" fill="white"/>
<path id="Vector_8" d="M51.2069 22.8016C50.9814 22.7987 50.7597 22.7432 50.5593 22.6396C50.3589 22.536 50.1855 22.3872 50.0527 22.2048C48.5759 19.964 46.6518 18.0526 44.4011 16.5908C44.1002 16.385 43.8935 16.068 43.8263 15.7097C43.7591 15.3515 43.8371 14.9812 44.0429 14.6803C44.2488 14.3795 44.5657 14.1728 44.924 14.1056C45.2822 14.0384 45.6525 14.1163 45.9534 14.3222C48.4644 16.0173 50.6262 18.1792 52.3214 20.6902C52.5219 20.9924 52.5967 21.3608 52.5298 21.7173C52.4629 22.0737 52.2597 22.39 51.9632 22.5989C51.726 22.7131 51.4694 22.7819 51.2069 22.8016Z" fill="white"/>
<path id="Vector_9" d="M14.8679 22.724C14.5848 22.7247 14.3079 22.6417 14.0718 22.4855C13.9206 22.3857 13.791 22.2565 13.6907 22.1056C13.5904 21.9546 13.5214 21.7851 13.4881 21.607C13.4546 21.4289 13.4573 21.2459 13.4961 21.0689C13.5349 20.8919 13.6089 20.7245 13.7137 20.5767C15.4145 18.1198 17.5446 15.9898 20.0014 14.289C20.3022 14.0831 20.6725 14.0052 21.0308 14.0724C21.3891 14.1396 21.706 14.3463 21.9118 14.6471C22.1177 14.948 22.1956 15.3183 22.1284 15.6765C22.0613 16.0348 21.8545 16.3517 21.5537 16.5576C19.3469 18.028 17.4533 19.9213 15.9823 22.1278C15.8606 22.3118 15.6951 22.4628 15.5005 22.5668C15.306 22.6709 15.0886 22.7249 14.8679 22.724Z" fill="white"/>
<path id="Vector_10" d="M37.1968 13.4475C37.1014 13.4542 37.0058 13.4406 36.9161 13.4076C34.328 12.8902 31.6631 12.8902 29.075 13.4076C28.7184 13.4655 28.3534 13.3807 28.0589 13.1716C27.7645 12.9624 27.5641 12.6457 27.5014 12.29C27.4386 11.9343 27.5183 11.5682 27.7234 11.2708C27.9285 10.9734 28.2424 10.7688 28.5972 10.7011C31.5296 10.1439 34.5407 10.1439 37.473 10.7011C37.8265 10.7747 38.1387 10.9804 38.3458 11.2763C38.5528 11.5721 38.6392 11.9359 38.5874 12.2932C38.5233 12.616 38.3501 12.907 38.097 13.1172C37.8437 13.3274 37.5258 13.444 37.1968 13.4475Z" fill="white"/>
</g>
</svg>
