<svg width="24" height="24" viewBox="0 0 24 24" fill="none" xmlns="http://www.w3.org/2000/svg">
<g id="SVG">
<path id="Vector" d="M23.4785 11.9997C23.4785 5.66048 18.3395 0.521484 12.0002 0.521484C5.66096 0.521484 0.521973 5.66048 0.521973 11.9997C0.521973 18.339 5.66096 23.478 12.0002 23.478C18.3395 23.478 23.4785 18.339 23.4785 11.9997Z" fill="#3482FF"/>
<g id="Clip path group">
<mask id="mask0_326_1370" style="mask-type:luminance" maskUnits="userSpaceOnUse" x="4" y="4" width="16" height="16">
<g id="a">
<path id="Vector_2" d="M4.6958 4.69531H19.3045V19.304H4.6958V4.69531Z" fill="white"/>
</g>
</mask>
<g mask="url(#mask0_326_1370)">
<g id="Group">
<path id="Vector_3" d="M10.8942 8.82387L6.67859 7.24509C6.59122 7.21222 6.49809 7.1974 6.40483 7.20152C6.31157 7.20565 6.22011 7.22863 6.13598 7.26909C5.96386 7.3525 5.83178 7.5007 5.76868 7.68126C5.7045 7.8635 5.71309 8.06347 5.79268 8.23952C5.8312 8.32566 5.88633 8.40336 5.9549 8.46818C6.02348 8.53299 6.10416 8.58366 6.19233 8.61726L9.58363 9.88822C9.76064 9.95499 9.91264 10.0749 10.0188 10.2315C10.1264 10.3905 10.1838 10.578 10.1836 10.77V12.8423C10.1836 13.124 10.1315 13.4016 10.0292 13.6625L8.20937 18.3007C8.15538 18.435 8.14142 18.582 8.1692 18.7241C8.19698 18.8661 8.26529 18.9971 8.3659 19.1011C8.43207 19.1679 8.51092 19.2209 8.59781 19.2569C8.68471 19.2929 8.77792 19.3113 8.87198 19.3108C8.96635 19.3098 9.05952 19.2896 9.14581 19.2514C9.23211 19.2131 9.30971 19.1578 9.3739 19.0886C9.43911 19.0191 9.49015 18.9376 9.52416 18.8486L11.1624 14.6757C11.2269 14.5036 11.3424 14.3553 11.4934 14.2506C11.6445 14.1459 11.8239 14.0898 12.0076 14.0898C12.1914 14.0898 12.3708 14.1459 12.5218 14.2506C12.6729 14.3553 12.7884 14.5036 12.8529 14.6757L14.4911 18.8475C14.5631 19.0249 14.6998 19.1668 14.872 19.2409C14.9571 19.2776 15.0487 19.2968 15.1414 19.2973C15.2341 19.2979 15.3259 19.2797 15.4115 19.244C15.5862 19.1705 15.725 19.0311 15.7975 18.8559C15.8714 18.6788 15.8748 18.4802 15.8069 18.3007L13.9882 13.6656C13.8856 13.4043 13.8329 13.1261 13.8327 12.8454V10.7689C13.8315 10.5784 13.8882 10.3921 13.9954 10.2346C14.1025 10.0771 14.255 9.95596 14.4327 9.88718L17.824 8.61622C17.9123 8.58273 17.9932 8.53212 18.062 8.4673C18.1307 8.40248 18.186 8.32472 18.2247 8.23848C18.3042 8.0624 18.3128 7.86247 18.2487 7.68022C18.1856 7.49966 18.0535 7.35145 17.8814 7.26805C17.7973 7.22742 17.7059 7.20426 17.6126 7.19995C17.5194 7.19565 17.4262 7.21029 17.3388 7.243L13.1231 8.82283C12.7754 8.99082 12.3943 9.07808 12.0082 9.07808C11.622 9.07808 11.2409 8.99082 10.8932 8.82283L10.8942 8.82387Z" fill="white"/>
<path id="Vector_4" d="M10.3872 6.36538C10.3872 6.67634 10.4707 6.98104 10.6303 7.24608C10.79 7.51008 11.0185 7.72399 11.2888 7.86173L11.4881 7.93686C11.8241 8.06208 12.1924 8.06208 12.5284 7.93686L12.7277 7.86173C12.9881 7.728 13.2079 7.52694 13.3643 7.27947C13.6028 6.90259 13.684 6.44715 13.5903 6.01104C13.4967 5.57494 13.2357 5.19299 12.8634 4.9473C12.6192 4.79122 12.337 4.70493 12.0473 4.69775C11.7576 4.69058 11.4715 4.7628 11.2199 4.9066C10.9658 5.05281 10.7554 5.26428 10.6105 5.51912C10.4642 5.77678 10.3872 6.06906 10.3872 6.36538Z" fill="white"/>
</g>
</g>
</g>
</g>
</svg>
