<svg width="21" height="20" viewBox="0 0 21 20" fill="none" xmlns="http://www.w3.org/2000/svg">
<g id="SVG">
<path id="Vector" d="M2.375 5.625C2.375 12.5283 7.97167 18.125 14.875 18.125H16.75C17.2473 18.125 17.7242 17.9275 18.0758 17.5758C18.4275 17.2242 18.625 16.7473 18.625 16.25V15.1067C18.625 14.6767 18.3325 14.3017 17.915 14.1975L14.2292 13.2758C13.8625 13.1842 13.4775 13.3217 13.2517 13.6233L12.4433 14.7008C12.2083 15.0142 11.8025 15.1525 11.435 15.0175C10.0707 14.5159 8.83179 13.7238 7.80398 12.696C6.77618 11.6682 5.98406 10.4293 5.4825 9.065C5.3475 8.6975 5.48583 8.29167 5.79917 8.05667L6.87667 7.24833C7.17917 7.0225 7.31583 6.63667 7.22417 6.27083L6.3025 2.585C6.25178 2.38225 6.13477 2.20225 5.97004 2.07361C5.80532 1.94498 5.60234 1.87507 5.39333 1.875H4.25C3.75272 1.875 3.27581 2.07254 2.92417 2.42417C2.57254 2.77581 2.375 3.25272 2.375 3.75V5.625Z" stroke="white" stroke-width="1.25" stroke-linecap="round" stroke-linejoin="round"/>
</g>
</svg>
