<svg width="24" height="24" viewBox="0 0 24 24" fill="none" xmlns="http://www.w3.org/2000/svg">
<g id="ClockCounterClockwise">
<rect x="0.000427246" width="24" height="24" rx="8" fill="white"/>
<path id="Vector" d="M21.0004 12C21.0005 13.7578 20.4857 15.4772 19.5197 16.9459C18.5537 18.4146 17.1788 19.5682 15.5646 20.2644C13.9504 20.9605 12.1678 21.1687 10.4366 20.8633C8.70548 20.5578 7.10169 19.7521 5.82324 18.5456C5.75159 18.4779 5.69397 18.3967 5.65369 18.3067C5.6134 18.2167 5.59123 18.1197 5.58845 18.0212C5.58566 17.9226 5.60231 17.8245 5.63745 17.7324C5.67259 17.6403 5.72553 17.556 5.79324 17.4843C5.92999 17.3396 6.11863 17.2552 6.31765 17.2495C6.4162 17.2468 6.51433 17.2634 6.60644 17.2985C6.69855 17.3337 6.78284 17.3866 6.85449 17.4543C7.92675 18.4659 9.27333 19.1391 10.726 19.3897C12.1786 19.6404 13.6729 19.4574 15.0222 18.8636C16.3714 18.2698 17.5158 17.2916 18.3122 16.0512C19.1087 14.8107 19.522 13.3631 19.5004 11.8891C19.4788 10.4152 19.0233 8.98025 18.1909 7.76367C17.3585 6.54708 16.186 5.60279 14.8199 5.04877C13.4539 4.49474 11.9549 4.35557 10.5102 4.64863C9.06547 4.94169 7.73917 5.65399 6.69699 6.69652C6.36605 7.03121 6.0548 7.36027 5.75199 7.68746L7.28105 9.21933C7.38606 9.32422 7.45759 9.45791 7.48657 9.60348C7.51556 9.74904 7.50071 9.89993 7.44389 10.0371C7.38708 10.1742 7.29086 10.2913 7.16741 10.3737C7.04397 10.4562 6.89885 10.5001 6.75043 10.5H3.00043C2.80152 10.5 2.61075 10.4209 2.4701 10.2803C2.32945 10.1396 2.25043 9.94887 2.25043 9.74996V5.99996C2.25031 5.85154 2.29423 5.70642 2.37664 5.58297C2.45904 5.45953 2.57622 5.36331 2.71333 5.30649C2.85045 5.24968 3.00134 5.23482 3.14691 5.26381C3.29247 5.2928 3.42616 5.36432 3.53105 5.46933L4.68793 6.62808C4.9898 6.3009 5.30105 5.97183 5.63105 5.63902C6.88926 4.37867 8.4931 3.51993 10.2396 3.1715C11.986 2.82307 13.7966 3.0006 15.4421 3.68164C17.0877 4.36267 18.4942 5.51659 19.4836 6.99733C20.473 8.47807 21.0009 10.2191 21.0004 12ZM12.0004 6.74996C11.8015 6.74996 11.6107 6.82898 11.4701 6.96963C11.3294 7.11028 11.2504 7.30105 11.2504 7.49996V12C11.2504 12.1294 11.2839 12.2567 11.3476 12.3694C11.4114 12.4821 11.5032 12.5764 11.6142 12.6431L15.3642 14.8931C15.4486 14.9438 15.5423 14.9774 15.6397 14.9919C15.7371 15.0065 15.8365 15.0017 15.9321 14.9778C16.0277 14.954 16.1176 14.9115 16.1968 14.8529C16.276 14.7943 16.3428 14.7207 16.3936 14.6362C16.4443 14.5518 16.4779 14.4581 16.4924 14.3607C16.507 14.2633 16.5022 14.1639 16.4783 14.0683C16.4545 13.9727 16.412 13.8828 16.3534 13.8036C16.2948 13.7244 16.2211 13.6576 16.1367 13.6068L12.7504 11.5753V7.49996C12.7504 7.30105 12.6714 7.11028 12.5308 6.96963C12.3901 6.82898 12.1993 6.74996 12.0004 6.74996Z" fill="#212121"/>
</g>
</svg>
