<svg width="24" height="24" viewBox="0 0 24 24" fill="none" xmlns="http://www.w3.org/2000/svg">
<g id="upper arrow / 24 / Outline">
<path id="Vector" d="M17.0036 13.4108L12.7136 9.1708C12.6206 9.07707 12.51 9.00268 12.3882 8.95191C12.2663 8.90114 12.1356 8.875 12.0036 8.875C11.8716 8.875 11.7409 8.90114 11.619 8.95191C11.4972 9.00268 11.3866 9.07707 11.2936 9.1708L7.05361 13.4108C6.95988 13.5038 6.88549 13.6144 6.83472 13.7362C6.78395 13.8581 6.75781 13.9888 6.75781 14.1208C6.75781 14.2528 6.78395 14.3835 6.83472 14.5054C6.88549 14.6272 6.95988 14.7378 7.05361 14.8308C7.24097 15.017 7.49442 15.1216 7.75861 15.1216C8.0228 15.1216 8.27625 15.017 8.46361 14.8308L12.0036 11.2908L15.5436 14.8308C15.7299 15.0155 15.9813 15.1197 16.2436 15.1208C16.3752 15.1216 16.5057 15.0963 16.6275 15.0466C16.7494 14.9968 16.8602 14.9235 16.9536 14.8308C17.0507 14.7412 17.129 14.6332 17.1841 14.5131C17.2393 14.3931 17.27 14.2633 17.2747 14.1312C17.2793 13.9992 17.2578 13.8675 17.2112 13.7439C17.1647 13.6202 17.0941 13.507 17.0036 13.4108Z" fill="#388E3C"/>
</g>
</svg>
