<svg width="24" height="24" viewBox="0 0 24 24" fill="none" xmlns="http://www.w3.org/2000/svg">
<g id="chat / 24 / Outline">
<path id="Vector" d="M7.99694 11C7.79916 11 7.60582 11.0586 7.44137 11.1685C7.27692 11.2784 7.14874 11.4346 7.07306 11.6173C6.99737 11.8 6.97757 12.0011 7.01615 12.1951C7.05474 12.3891 7.14998 12.5673 7.28983 12.7071C7.42968 12.847 7.60786 12.9422 7.80185 12.9808C7.99583 13.0194 8.19689 12.9996 8.37962 12.9239C8.56235 12.8482 8.71852 12.72 8.82841 12.5556C8.93829 12.3911 8.99694 12.1978 8.99694 12C8.99694 11.7348 8.89158 11.4804 8.70404 11.2929C8.51651 11.1054 8.26215 11 7.99694 11ZM11.9969 11C11.7992 11 11.6058 11.0586 11.4414 11.1685C11.2769 11.2784 11.1487 11.4346 11.0731 11.6173C10.9974 11.8 10.9776 12.0011 11.0162 12.1951C11.0547 12.3891 11.15 12.5673 11.2898 12.7071C11.4297 12.847 11.6079 12.9422 11.8018 12.9808C11.9958 13.0194 12.1969 12.9996 12.3796 12.9239C12.5623 12.8482 12.7185 12.72 12.8284 12.5556C12.9383 12.3911 12.9969 12.1978 12.9969 12C12.9969 11.7348 12.8916 11.4804 12.704 11.2929C12.5165 11.1054 12.2622 11 11.9969 11ZM15.9969 11C15.7992 11 15.6058 11.0586 15.4414 11.1685C15.2769 11.2784 15.1487 11.4346 15.0731 11.6173C14.9974 11.8 14.9776 12.0011 15.0162 12.1951C15.0547 12.3891 15.15 12.5673 15.2898 12.7071C15.4297 12.847 15.6079 12.9422 15.8018 12.9808C15.9958 13.0194 16.1969 12.9996 16.3796 12.9239C16.5623 12.8482 16.7185 12.72 16.8284 12.5556C16.9383 12.3911 16.9969 12.1978 16.9969 12C16.9969 11.7348 16.8916 11.4804 16.704 11.2929C16.5165 11.1054 16.2622 11 15.9969 11ZM11.9969 2C10.6837 2 9.38336 2.25866 8.1701 2.7612C6.95685 3.26375 5.85445 4.00035 4.92587 4.92893C3.0505 6.8043 1.99694 9.34784 1.99694 12C1.98819 14.3091 2.78773 16.5485 4.25694 18.33L2.25694 20.33C2.11818 20.4706 2.02418 20.6492 1.98681 20.8432C1.94943 21.0372 1.97036 21.2379 2.04694 21.42C2.12999 21.5999 2.26464 21.7511 2.43378 21.8544C2.60293 21.9577 2.79894 22.0083 2.99694 22H11.9969C14.6491 22 17.1926 20.9464 19.068 19.0711C20.9434 17.1957 21.9969 14.6522 21.9969 12C21.9969 9.34784 20.9434 6.8043 19.068 4.92893C17.1926 3.05357 14.6491 2 11.9969 2ZM11.9969 20H5.40694L6.33694 19.07C6.43142 18.9774 6.50659 18.8669 6.55809 18.7451C6.60959 18.6232 6.63639 18.4923 6.63694 18.36C6.63318 18.0962 6.52535 17.8446 6.33694 17.66C5.02752 16.352 4.21211 14.6305 4.02963 12.7888C3.84714 10.947 4.30888 9.09901 5.33616 7.55952C6.36345 6.02004 7.89273 4.88436 9.66345 4.34597C11.4342 3.80759 13.3368 3.8998 15.0472 4.60691C16.7575 5.31402 18.1698 6.59227 19.0434 8.22389C19.917 9.85551 20.1978 11.7395 19.8381 13.555C19.4783 15.3705 18.5002 17.005 17.0705 18.1802C15.6407 19.3554 13.8477 19.9985 11.9969 20Z" fill="#fff"/>
</g>
</svg>
