<svg width="24" height="24" viewBox="0 0 24 24" fill="none" xmlns="http://www.w3.org/2000/svg">
<g id="account / 24 / Outline">
<path id="Vector" d="M15.7085 12.7077C16.6889 11.9363 17.4045 10.8786 17.7558 9.68163C18.107 8.48465 18.0765 7.20795 17.6683 6.02915C17.2602 4.85035 16.4948 3.82808 15.4786 3.10454C14.4624 2.381 13.246 1.99219 11.9985 1.99219C10.7511 1.99219 9.53465 2.381 8.51846 3.10454C7.50228 3.82808 6.73688 4.85035 6.32874 6.02915C5.92061 7.20795 5.89004 8.48465 6.24129 9.68163C6.59254 10.8786 7.30814 11.9363 8.28853 12.7077C6.60861 13.3807 5.14282 14.497 4.04742 15.9376C2.95203 17.3782 2.26809 19.089 2.06853 20.8877C2.05409 21.019 2.06565 21.1519 2.10256 21.2787C2.13947 21.4056 2.201 21.5239 2.28364 21.627C2.45055 21.8352 2.69332 21.9685 2.95853 21.9977C3.22375 22.0269 3.48969 21.9495 3.69786 21.7826C3.90602 21.6157 4.03936 21.3729 4.06853 21.1077C4.28812 19.1529 5.22022 17.3475 6.68675 16.0365C8.15328 14.7255 10.0514 14.0007 12.0185 14.0007C13.9856 14.0007 15.8838 14.7255 17.3503 16.0365C18.8168 17.3475 19.7489 19.1529 19.9685 21.1077C19.9957 21.3534 20.113 21.5803 20.2976 21.7447C20.4823 21.9091 20.7213 21.9992 20.9685 21.9977H21.0785C21.3407 21.9675 21.5803 21.835 21.7451 21.6289C21.9099 21.4229 21.9866 21.16 21.9585 20.8977C21.758 19.0939 21.0704 17.3787 19.9694 15.9359C18.8684 14.4931 17.3954 13.3772 15.7085 12.7077ZM11.9985 11.9977C11.2074 11.9977 10.434 11.7631 9.77625 11.3236C9.11845 10.884 8.60576 10.2593 8.30301 9.52842C8.00026 8.79751 7.92105 7.99325 8.07539 7.21732C8.22973 6.4414 8.61069 5.72867 9.1701 5.16926C9.72951 4.60985 10.4422 4.22888 11.2182 4.07454C11.9941 3.9202 12.7984 3.99941 13.5293 4.30217C14.2602 4.60492 14.8849 5.11761 15.3244 5.7754C15.7639 6.4332 15.9985 7.20656 15.9985 7.99768C15.9985 9.05855 15.5771 10.076 14.827 10.8261C14.0768 11.5763 13.0594 11.9977 11.9985 11.9977Z" fill="#fff"/>
</g>
</svg>
