<svg width="33" height="32" viewBox="0 0 33 32" fill="none" xmlns="http://www.w3.org/2000/svg">
<g id="SquaresFour">
<path id="Vector" d="M15.2543 7V13C15.2543 13.5304 15.0436 14.0391 14.6685 14.4142C14.2935 14.7893 13.7848 15 13.2543 15H7.25433C6.7239 15 6.21519 14.7893 5.84012 14.4142C5.46505 14.0391 5.25433 13.5304 5.25433 13V7C5.25433 6.46957 5.46505 5.96086 5.84012 5.58579C6.21519 5.21071 6.7239 5 7.25433 5H13.2543C13.7848 5 14.2935 5.21071 14.6685 5.58579C15.0436 5.96086 15.2543 6.46957 15.2543 7ZM25.2543 5H19.2543C18.7239 5 18.2152 5.21071 17.8401 5.58579C17.465 5.96086 17.2543 6.46957 17.2543 7V13C17.2543 13.5304 17.465 14.0391 17.8401 14.4142C18.2152 14.7893 18.7239 15 19.2543 15H25.2543C25.7848 15 26.2935 14.7893 26.6685 14.4142C27.0436 14.0391 27.2543 13.5304 27.2543 13V7C27.2543 6.46957 27.0436 5.96086 26.6685 5.58579C26.2935 5.21071 25.7848 5 25.2543 5ZM13.2543 17H7.25433C6.7239 17 6.21519 17.2107 5.84012 17.5858C5.46505 17.9609 5.25433 18.4696 5.25433 19V25C5.25433 25.5304 5.46505 26.0391 5.84012 26.4142C6.21519 26.7893 6.7239 27 7.25433 27H13.2543C13.7848 27 14.2935 26.7893 14.6685 26.4142C15.0436 26.0391 15.2543 25.5304 15.2543 25V19C15.2543 18.4696 15.0436 17.9609 14.6685 17.5858C14.2935 17.2107 13.7848 17 13.2543 17ZM25.2543 17H19.2543C18.7239 17 18.2152 17.2107 17.8401 17.5858C17.465 17.9609 17.2543 18.4696 17.2543 19V25C17.2543 25.5304 17.465 26.0391 17.8401 26.4142C18.2152 26.7893 18.7239 27 19.2543 27H25.2543C25.7848 27 26.2935 26.7893 26.6685 26.4142C27.0436 26.0391 27.2543 25.5304 27.2543 25V19C27.2543 18.4696 27.0436 17.9609 26.6685 17.5858C26.2935 17.2107 25.7848 17 25.2543 17Z" fill="#388E3C"/>
</g>
</svg>
