<svg width="24" height="24" viewBox="0 0 24 24" fill="none" xmlns="http://www.w3.org/2000/svg">
<g id="Cancel / 24 / Outline">
<path id="Vector" d="M13.408 11.9963L17.708 7.70628C17.8963 7.51798 18.0021 7.26258 18.0021 6.99628C18.0021 6.72998 17.8963 6.47458 17.708 6.28628C17.5197 6.09798 17.2643 5.99219 16.998 5.99219C16.7317 5.99219 16.4763 6.09798 16.288 6.28628L11.998 10.5863L7.70799 6.28628C7.51968 6.09798 7.26429 5.99219 6.99799 5.99219C6.73168 5.99219 6.47629 6.09798 6.28799 6.28628C6.09968 6.47458 5.99389 6.72998 5.99389 6.99628C5.99389 7.26258 6.09968 7.51798 6.28799 7.70628L10.588 11.9963L6.28799 16.2863C6.19426 16.3792 6.11986 16.4898 6.06909 16.6117C6.01833 16.7336 5.99219 16.8643 5.99219 16.9963C5.99219 17.1283 6.01833 17.259 6.06909 17.3809C6.11986 17.5027 6.19426 17.6133 6.28799 17.7063C6.38095 17.8 6.49155 17.8744 6.61341 17.9252C6.73527 17.9759 6.86597 18.0021 6.99799 18.0021C7.13 18.0021 7.2607 17.9759 7.38256 17.9252C7.50442 17.8744 7.61502 17.8 7.70799 17.7063L11.998 13.4063L16.288 17.7063C16.3809 17.8 16.4915 17.8744 16.6134 17.9252C16.7353 17.9759 16.866 18.0021 16.998 18.0021C17.13 18.0021 17.2607 17.9759 17.3826 17.9252C17.5044 17.8744 17.615 17.8 17.708 17.7063C17.8017 17.6133 17.8761 17.5027 17.9269 17.3809C17.9776 17.259 18.0038 17.1283 18.0038 16.9963C18.0038 16.8643 17.9776 16.7336 17.9269 16.6117C17.8761 16.4898 17.8017 16.3792 17.708 16.2863L13.408 11.9963Z" fill="#388E3C"/>
</g>
</svg>
