<svg width="65" height="64" viewBox="0 0 65 64" fill="none" xmlns="http://www.w3.org/2000/svg">
<g id="ico_cta_steps_3.svg">
<path id="Vector" d="M18.8423 26.9024C18.5802 26.8999 18.3202 26.9495 18.0776 27.0486C17.8349 27.1477 17.6145 27.2942 17.4292 27.4795C17.2438 27.6649 17.0974 27.8853 16.9983 28.1279C16.8991 28.3706 16.8495 28.6305 16.8522 28.8927V39.241H49.4893V28.8927C49.492 28.6305 49.4422 28.3706 49.3431 28.1279C49.2441 27.8853 49.0975 27.6649 48.9122 27.4795C48.7269 27.2942 48.5065 27.1477 48.2638 27.0486C48.0212 26.9495 47.7612 26.8999 47.4991 26.9024H18.8423Z" fill="#E5E7EB"/>
<path id="Vector_2" d="M33.1711 42.4233C34.9297 42.4233 36.3554 40.9977 36.3554 39.2391C36.3554 37.4804 34.9297 36.0547 33.1711 36.0547C31.4125 36.0547 29.9868 37.4804 29.9868 39.2391C29.9868 40.9977 31.4125 42.4233 33.1711 42.4233Z" fill="#34B849"/>
<path id="Vector_3" d="M47.4993 52.7717H18.8425C17.9988 52.7693 17.1903 52.4332 16.5937 51.8367C15.997 51.2401 15.6608 50.4317 15.6582 49.588V28.8913C15.6606 28.0475 15.9969 27.2389 16.5935 26.6423C17.1901 26.0457 17.9987 25.7094 18.8425 25.707H47.4993C48.3431 25.7094 49.1517 26.0457 49.7484 26.6423C50.345 27.2389 50.6812 28.0475 50.6836 28.8913V49.588C50.6811 50.4317 50.3447 51.2401 49.7482 51.8367C49.1515 52.4332 48.343 52.7693 47.4993 52.7717ZM18.8425 28.0952C18.6316 28.0958 18.4294 28.1799 18.2802 28.329C18.1311 28.4782 18.047 28.6804 18.0464 28.8913V49.588C18.047 49.7989 18.1311 50.0011 18.2802 50.1503C18.4294 50.2994 18.6316 50.3835 18.8425 50.3841H47.4993C47.7103 50.3835 47.9124 50.2994 48.0616 50.1503C48.2107 50.0011 48.2948 49.7989 48.2954 49.588V28.8913C48.2948 28.6804 48.2107 28.4782 48.0616 28.329C47.9124 28.1799 47.7103 28.0958 47.4993 28.0952H18.8425Z" fill="#E5E7EB"/>
<path id="Vector_4" d="M33.1706 47.1998C31.0613 47.1935 29.0402 46.3529 27.5487 44.8614C26.0573 43.3699 25.2167 41.3488 25.2105 39.2396C25.2097 38.4438 25.3305 37.6527 25.5686 36.8935C25.6108 36.7422 25.6827 36.6008 25.7801 36.4776C25.8774 36.3543 25.9984 36.2517 26.1359 36.1757C26.2733 36.0997 26.4245 36.0518 26.5807 36.0349C26.7369 36.0179 26.8948 36.0321 27.0454 36.0768C27.196 36.1215 27.3362 36.1958 27.4578 36.2953C27.5794 36.3947 27.6799 36.5173 27.7536 36.656C27.8273 36.7948 27.8727 36.9468 27.887 37.1032C27.9014 37.2597 27.8845 37.4174 27.8372 37.5671C27.68 38.1106 27.5998 38.6733 27.5987 39.239C27.603 40.4057 27.9749 41.5413 28.6615 42.4847C29.3481 43.428 30.3144 44.131 31.4232 44.4938C32.5321 44.8567 33.727 44.861 34.8384 44.5061C35.9498 44.1512 36.9212 43.4551 37.6145 42.5168C38.3078 41.5785 38.6878 40.4455 38.7006 39.2789C38.7134 38.1122 38.3582 36.9712 37.6856 36.0179C37.0131 35.0645 36.0572 34.3474 34.9538 33.9682C33.8505 33.5891 32.6557 33.5672 31.5391 33.9057C31.3903 33.9548 31.2329 33.973 31.0769 33.9592C30.9207 33.9453 30.769 33.8997 30.6312 33.8252C30.4933 33.7506 30.3721 33.6488 30.275 33.5257C30.178 33.4026 30.107 33.261 30.0666 33.1096C30.0215 32.9607 30.0063 32.8042 30.0221 32.6495C30.0377 32.4946 30.0839 32.3445 30.1578 32.2075C30.2319 32.0706 30.3323 31.9498 30.4532 31.8518C30.5742 31.7539 30.7134 31.681 30.8627 31.6371C31.6081 31.3961 32.3871 31.2753 33.1706 31.2794C35.2817 31.2794 37.3065 32.1181 38.7992 33.6109C40.2921 35.1038 41.1307 37.1285 41.1307 39.2396C41.1307 41.3507 40.2921 43.3754 38.7992 44.8682C37.3065 46.3611 35.2817 47.1998 33.1706 47.1998Z" fill="#E5E7EB"/>
<path id="Vector_5" d="M41.5273 24.5147C41.3696 24.5175 41.213 24.4886 41.0669 24.4297C40.9207 24.3707 40.7879 24.2828 40.6764 24.1714C40.565 24.0599 40.4771 23.9271 40.4181 23.7809C40.3592 23.6348 40.3303 23.4782 40.3331 23.3205V22.1265C40.3331 20.2263 39.5783 18.4041 38.2347 17.0605C36.8912 15.7169 35.0689 14.9622 33.1688 14.9622C31.2687 14.9622 29.4464 15.7169 28.1028 17.0605C26.7593 18.4041 26.0044 20.2263 26.0044 22.1265V23.3205C26.0044 23.6373 25.8786 23.941 25.6547 24.1649C25.4307 24.3889 25.127 24.5147 24.8104 24.5147C24.4937 24.5147 24.1899 24.3889 23.9659 24.1649C23.742 23.941 23.6162 23.6373 23.6162 23.3205V22.1265C23.6162 19.593 24.6227 17.1634 26.414 15.3719C28.2054 13.5806 30.6351 12.5742 33.1685 12.5742C35.7019 12.5742 38.1316 13.5806 39.923 15.3719C41.7144 17.1634 42.7208 19.593 42.7208 22.1265V23.3205C42.7237 23.4781 42.6948 23.6346 42.6358 23.7808C42.5768 23.9269 42.4891 24.0597 42.3776 24.1712C42.2663 24.2827 42.1335 24.3705 41.9874 24.4295C41.8413 24.4886 41.6848 24.5174 41.5273 24.5147Z" fill="#E5E7EB"/>
<path id="Vector_6" d="M46.3049 24.5131C46.1473 24.516 45.9908 24.487 45.8446 24.428C45.6984 24.3691 45.5656 24.2812 45.4542 24.1698C45.3426 24.0583 45.2548 23.9256 45.1958 23.7794C45.1368 23.6332 45.1079 23.4765 45.1108 23.3189V22.1254C45.1108 20.5574 44.802 19.0047 44.2019 17.556C43.6018 16.1073 42.7223 14.791 41.6135 13.6822C40.5048 12.5734 39.1885 11.6939 37.7398 11.0938C36.2911 10.4938 34.7384 10.1849 33.1704 10.1849C31.6023 10.1849 30.0495 10.4938 28.6009 11.0938C27.1522 11.6939 25.8359 12.5734 24.7271 13.6822C23.6184 14.791 22.7388 16.1073 22.1388 17.556C21.5387 19.0047 21.2298 20.5574 21.2298 22.1254V23.3196C21.2298 23.6362 21.104 23.9399 20.8801 24.1639C20.6562 24.3878 20.3524 24.5136 20.0357 24.5136C19.719 24.5136 19.4153 24.3878 19.1914 24.1639C18.9674 23.9399 18.8416 23.6362 18.8416 23.3196V22.1254C18.8298 20.2362 19.1917 18.3634 19.9065 16.6146C20.6212 14.8658 21.6748 13.2756 23.0064 11.9356C24.3382 10.5955 25.9217 9.53205 27.666 8.80633C29.4103 8.08063 31.2808 7.70703 33.1701 7.70703C35.0593 7.70703 36.9298 8.08063 38.6741 8.80633C40.4184 9.53205 42.0019 10.5955 43.3337 11.9356C44.6653 13.2756 45.7188 14.8658 46.4336 16.6146C47.1484 18.3634 47.5103 20.2362 47.4985 22.1254V23.3196C47.5012 23.477 47.4724 23.6335 47.4134 23.7795C47.3544 23.9256 47.2665 24.0584 47.1552 24.1698C47.0437 24.2811 46.9111 24.369 46.765 24.428C46.6189 24.4869 46.4624 24.5159 46.3049 24.5131Z" fill="#E5E7EB"/>
</g>
</svg>
