<svg width="65" height="64" viewBox="0 0 65 64" fill="none" xmlns="http://www.w3.org/2000/svg">
<g id="ico_cta_steps_2.svg">
<path id="Vector" d="M14.0737 41.0098V44.1143C14.078 45.0841 14.4651 46.0129 15.1509 46.6986C15.8366 47.3843 16.7654 47.7715 17.7352 47.7758H46.5116C47.4812 47.7713 48.4097 47.384 49.0952 46.6983C49.7807 46.0126 50.1677 45.0839 50.1719 44.1143V41.0098H14.0737Z" fill="#E7ECF2"/>
<path id="Vector_2" d="M41.016 54.7801H23.2274C22.9424 54.7801 22.669 54.6669 22.4675 54.4654C22.266 54.2639 22.1528 53.9905 22.1528 53.7056C22.1528 53.4206 22.266 53.1473 22.4675 52.9458C22.669 52.7443 22.9424 52.6311 23.2274 52.6311C23.8163 52.6255 24.3952 52.4779 24.9149 52.2006C25.4346 51.9235 25.8796 51.525 26.2124 51.039C26.3732 50.8019 26.6206 50.6374 26.9014 50.581C27.1823 50.5245 27.4741 50.5805 27.714 50.7371C27.954 50.8936 28.1228 51.138 28.1844 51.4177C28.2459 51.6975 28.1952 51.9903 28.043 52.233C27.9234 52.3925 27.8444 52.5137 27.7623 52.6311H36.2396C35.9052 52.1488 35.6623 51.6091 35.5232 51.039L34.767 48.054C34.733 47.9154 34.7266 47.7716 34.7482 47.6306C34.7699 47.4896 34.8191 47.3542 34.8929 47.2322C34.9669 47.1103 35.0641 47.004 35.1791 46.9196C35.294 46.8352 35.4245 46.7743 35.563 46.7403C35.7016 46.7062 35.8454 46.6999 35.9864 46.7215C36.1274 46.7431 36.2628 46.7923 36.3848 46.8662C36.5068 46.9401 36.613 47.0374 36.6974 47.1523C36.7819 47.2673 36.8428 47.3978 36.8768 47.5363L37.633 50.5213C37.7909 51.1392 38.1509 51.6864 38.6559 52.0758C39.1608 52.4652 39.7815 52.6745 40.4192 52.6704H41.016C41.1582 52.6664 41.2996 52.6915 41.4318 52.7441C41.5639 52.7968 41.684 52.8758 41.7846 52.9763C41.8851 53.0769 41.9641 53.1969 42.0168 53.3291C42.0694 53.4613 42.0944 53.6027 42.0905 53.7449C42.0836 54.0241 41.967 54.2893 41.7658 54.4832C41.5647 54.6769 41.2952 54.7836 41.016 54.7801Z" fill="white"/>
<path id="Vector_3" d="M41.016 54.7803H23.2274C22.9424 54.7803 22.669 54.6671 22.4675 54.4656C22.266 54.2641 22.1528 53.9908 22.1528 53.7058C22.1528 53.4208 22.266 53.1475 22.4675 52.946C22.669 52.7444 22.9424 52.6313 23.2274 52.6313H40.9789C41.1211 52.6273 41.2626 52.6524 41.3947 52.705C41.5269 52.7576 41.647 52.8366 41.7475 52.9372C41.8481 53.0378 41.9271 53.1578 41.9797 53.2899C42.0323 53.4221 42.0574 53.5636 42.0534 53.7058C42.0567 53.9854 41.9497 54.255 41.7555 54.4562C41.5613 54.6573 41.2955 54.7738 41.016 54.7803Z" fill="white"/>
<path id="Vector_4" d="M46.5113 48.8511H17.7354C17.1129 48.853 16.4961 48.7317 15.9206 48.4944C15.3451 48.257 14.8222 47.9082 14.382 47.468C13.9418 47.0278 13.593 46.5049 13.3556 45.9294C13.1182 45.3539 12.9969 44.7371 12.9989 44.1146V23.4549C12.9953 23.3129 13.0206 23.1718 13.0734 23.0399C13.1262 22.9082 13.2052 22.7884 13.3058 22.6882C13.4064 22.5879 13.5262 22.5092 13.6582 22.4567C13.7902 22.4043 13.9314 22.3793 14.0733 22.3832C14.2146 22.3827 14.3547 22.41 14.4852 22.4638C14.6159 22.5176 14.7345 22.5967 14.8345 22.6966C14.9344 22.7965 15.0135 22.9152 15.0673 23.0458C15.1211 23.1764 15.1484 23.3165 15.1479 23.4578V44.0747C15.1435 44.4105 15.2064 44.7436 15.3329 45.0546C15.4593 45.3656 15.6467 45.6481 15.8842 45.8856C16.1215 46.1229 16.404 46.3103 16.7151 46.4369C17.0261 46.5633 17.3593 46.6262 17.6949 46.6218H46.4714C46.8071 46.6262 47.1402 46.5633 47.4513 46.4369C47.7623 46.3103 48.0448 46.1229 48.2822 45.8856C48.5196 45.6481 48.707 45.3656 48.8335 45.0546C48.9599 44.7436 49.0228 44.4105 49.0184 44.0747V23.4578C49.0184 23.1728 49.1317 22.8994 49.3332 22.6979C49.5347 22.4964 49.808 22.3832 50.093 22.3832C50.378 22.3832 50.6513 22.4964 50.8528 22.6979C51.0543 22.8994 51.1676 23.1728 51.1676 23.4578V44.0747C51.1859 44.6968 51.079 45.3162 50.853 45.8962C50.627 46.4761 50.2866 47.0047 49.8522 47.4503C49.4178 47.8959 48.8981 48.2496 48.3241 48.4903C47.7501 48.7309 47.1336 48.8537 46.5113 48.8511Z" fill="white"/>
<path id="Vector_5" d="M50.1336 24.5298C49.9914 24.5337 49.8499 24.5086 49.7178 24.456C49.5857 24.4034 49.4656 24.3244 49.365 24.2238C49.2645 24.1233 49.1855 24.0032 49.1328 23.871C49.0802 23.7389 49.0551 23.5974 49.0591 23.4552V21.6245C49.0635 21.2888 49.0007 20.9557 48.8744 20.6447C48.748 20.3337 48.5607 20.0511 48.3234 19.8137C48.0861 19.5763 47.8037 19.3887 47.4928 19.2622C47.1819 19.1357 46.8488 19.0727 46.5131 19.0769H41.0204C40.7354 19.0769 40.4621 18.9637 40.2605 18.7621C40.059 18.5606 39.9458 18.2873 39.9458 18.0023C39.9458 17.7173 40.059 17.4441 40.2605 17.2425C40.4621 17.041 40.7354 16.9278 41.0204 16.9278H46.5131C47.1357 16.9258 47.7524 17.0471 48.328 17.2844C48.9035 17.5218 49.4265 17.8706 49.8667 18.3108C50.3069 18.751 50.6557 19.2739 50.8931 19.8494C51.1304 20.425 51.2516 21.0418 51.2497 21.6644V23.4963C51.2446 23.6375 51.2117 23.7764 51.1528 23.9049C51.0939 24.0333 51.0102 24.149 50.9064 24.245C50.8028 24.3411 50.6811 24.4157 50.5485 24.4645C50.4158 24.5134 50.2749 24.5355 50.1336 24.5298Z" fill="white"/>
<path id="Vector_6" d="M14.0735 24.5305C13.9314 24.5344 13.7899 24.5094 13.6578 24.4569C13.5258 24.4043 13.4058 24.3254 13.3053 24.2249C13.2047 24.1245 13.1256 24.0046 13.073 23.8726C13.0203 23.7405 12.9952 23.5992 12.9989 23.4571V21.6252C12.9971 21.0027 13.1183 20.3859 13.3557 19.8105C13.5931 19.2349 13.9419 18.7121 14.382 18.2718C14.8223 17.8317 15.3451 17.4828 15.9207 17.2454C16.4961 17.0081 17.1129 16.8869 17.7354 16.8887H19.4865C19.7715 16.8887 20.0448 17.0019 20.2463 17.2034C20.4478 17.4049 20.561 17.6782 20.561 17.9632C20.561 18.2481 20.4478 18.5215 20.2463 18.723C20.0448 18.9245 19.7715 19.0377 19.4865 19.0377H17.7354C17.3997 19.0333 17.0666 19.0962 16.7556 19.2227C16.4446 19.3491 16.1621 19.5366 15.9246 19.774C15.6873 20.0114 15.4998 20.2939 15.3733 20.6049C15.2469 20.9159 15.184 21.2491 15.1883 21.5848V23.4156C15.1921 23.563 15.1658 23.7096 15.111 23.8466C15.0563 23.9835 14.9743 24.1079 14.8701 24.2122C14.7658 24.3164 14.6414 24.3985 14.5045 24.4531C14.3675 24.5079 14.2208 24.5342 14.0735 24.5305Z" fill="white"/>
<path id="Vector_7" d="M31.029 11.2383H27.1284V27.7957H31.029V11.2383Z" fill="#34B849"/>
<path id="Vector_8" d="M41.0992 31.7744H23.3077C23.1656 31.7783 23.024 31.7531 22.8919 31.7006C22.7597 31.648 22.6397 31.569 22.5391 31.4683C22.4385 31.3678 22.3595 31.2477 22.307 31.1156C22.2543 30.9835 22.2292 30.842 22.2332 30.6998C22.2326 30.5585 22.26 30.4186 22.3137 30.2879C22.3676 30.1573 22.4467 30.0386 22.5466 29.9386C22.6465 29.8387 22.7652 29.7596 22.8958 29.7059C23.0264 29.652 23.1665 29.6247 23.3077 29.6252H39.9842V13.7044C39.9846 13.5109 39.9467 13.3193 39.8729 13.1406C39.799 12.9617 39.6905 12.7993 39.5537 12.6625C39.4169 12.5258 39.2544 12.4174 39.0756 12.3436C38.8968 12.2697 38.7051 12.232 38.5117 12.2324H25.8155C25.622 12.232 25.4303 12.2698 25.2514 12.3436C25.0726 12.4175 24.9101 12.5259 24.7732 12.6628C24.6365 12.7995 24.5279 12.9621 24.4542 13.1409C24.3803 13.3198 24.3425 13.5115 24.343 13.705V26.8418C24.3469 26.984 24.3218 27.1255 24.2692 27.2577C24.2166 27.3898 24.1375 27.5098 24.037 27.6104C23.9364 27.711 23.8163 27.79 23.6842 27.8426C23.5521 27.8952 23.4106 27.9203 23.2684 27.9163C23.1272 27.917 22.9871 27.8895 22.8565 27.8358C22.7259 27.7819 22.6072 27.7029 22.5073 27.6029C22.4073 27.5031 22.3283 27.3843 22.2745 27.2538C22.2206 27.1231 22.1933 26.9831 22.1939 26.8418V13.7044C22.1982 12.7347 22.5853 11.806 23.2708 11.1203C23.9564 10.4346 24.8851 10.0474 25.8548 10.043H38.5515C39.5212 10.0473 40.45 10.4344 41.1358 11.1201C41.8216 11.8058 42.2087 12.7346 42.213 13.7044V30.7026C42.1979 30.9892 42.0744 31.2593 41.8676 31.4584C41.6608 31.6573 41.3861 31.7703 41.0992 31.7744Z" fill="white"/>
</g>
</svg>
