<svg width="24" height="24" viewBox="0 0 24 24" fill="none" xmlns="http://www.w3.org/2000/svg">
<g id="UploadSimple">
<path id="Vector" d="M21 13.5006V19.5006C21 19.6995 20.921 19.8903 20.7803 20.0309C20.6397 20.1716 20.4489 20.2506 20.25 20.2506H3.75C3.55109 20.2506 3.36032 20.1716 3.21967 20.0309C3.07902 19.8903 3 19.6995 3 19.5006V13.5006C3 13.3017 3.07902 13.1109 3.21967 12.9703C3.36032 12.8296 3.55109 12.7506 3.75 12.7506C3.94891 12.7506 4.13968 12.8296 4.28033 12.9703C4.42098 13.1109 4.5 13.3017 4.5 13.5006V18.7506H19.5V13.5006C19.5 13.3017 19.579 13.1109 19.7197 12.9703C19.8603 12.8296 20.0511 12.7506 20.25 12.7506C20.4489 12.7506 20.6397 12.8296 20.7803 12.9703C20.921 13.1109 21 13.3017 21 13.5006ZM8.78063 7.28122L11.25 4.8109V13.5006C11.25 13.6995 11.329 13.8903 11.4697 14.0309C11.6103 14.1716 11.8011 14.2506 12 14.2506C12.1989 14.2506 12.3897 14.1716 12.5303 14.0309C12.671 13.8903 12.75 13.6995 12.75 13.5006V4.8109L15.2194 7.28122C15.3601 7.42195 15.551 7.50101 15.75 7.50101C15.949 7.50101 16.1399 7.42195 16.2806 7.28122C16.4214 7.14048 16.5004 6.94961 16.5004 6.75059C16.5004 6.55157 16.4214 6.3607 16.2806 6.21996L12.5306 2.46996C12.461 2.40023 12.3783 2.34491 12.2872 2.30717C12.1962 2.26943 12.0986 2.25 12 2.25C11.9014 2.25 11.8038 2.26943 11.7128 2.30717C11.6217 2.34491 11.539 2.40023 11.4694 2.46996L7.71937 6.21996C7.57864 6.3607 7.49958 6.55157 7.49958 6.75059C7.49958 6.94961 7.57864 7.14048 7.71937 7.28122C7.86011 7.42195 8.05098 7.50101 8.25 7.50101C8.44902 7.50101 8.63989 7.42195 8.78063 7.28122Z" fill="#212121"/>
</g>
</svg>
