<svg width="169" height="162" viewBox="0 0 169 162" fill="none" xmlns="http://www.w3.org/2000/svg">
<g id="upload csv">
<path id="Vector" d="M17.0684 80.7357C17.0684 89.1964 18.8125 97.5742 22.2013 105.391C25.5901 113.208 30.557 120.31 36.8187 126.293C43.0803 132.275 50.5139 137.021 58.6951 140.259C66.8763 143.496 75.6449 145.163 84.5001 145.163C93.3554 145.163 102.124 143.496 110.305 140.259C118.486 137.021 125.92 132.275 132.182 126.293C138.443 120.31 143.41 113.208 146.799 105.391C150.188 97.5742 151.932 89.1964 151.932 80.7357C151.932 72.275 150.188 63.8972 146.799 56.0805C143.41 48.2639 138.443 41.1615 132.182 35.1789C125.92 29.1962 118.486 24.4506 110.305 21.2128C102.124 17.975 93.3554 16.3086 84.5001 16.3086C75.6449 16.3086 66.8763 17.975 58.6951 21.2128C50.5139 24.4506 43.0803 29.1962 36.8187 35.1789C30.557 41.1615 25.5901 48.2639 22.2013 56.0805C18.8125 63.8972 17.0684 72.275 17.0684 80.7357Z" fill="#D9EDFF"/>
<path id="Vector_2" d="M44.6108 48.3984H107.803V105.223H44.6108V48.3984Z" fill="white"/>
<path id="Vector_3" d="M44.6108 48.3984H107.803V105.223H44.6108V48.3984Z" stroke="#020064" stroke-linecap="round" stroke-linejoin="round"/>
<path id="Vector_4" d="M60.4083 54.6091C60.4174 54.9644 60.3521 55.3178 60.2161 55.6486C60.0801 55.9793 59.8763 56.2808 59.6165 56.5351C59.3568 56.7895 59.0464 56.9916 58.7037 57.1296C58.3609 57.2676 57.9928 57.3387 57.6208 57.3387C57.2489 57.3387 56.8807 57.2676 56.538 57.1296C56.1952 56.9916 55.8848 56.7895 55.6251 56.5351C55.3654 56.2808 55.1615 55.9793 55.0255 55.6486C54.8896 55.3178 54.8242 54.9644 54.8334 54.6091V41.2921C54.8242 40.9368 54.8896 40.5834 55.0255 40.2526C55.1615 39.9219 55.3654 39.6204 55.6251 39.3661C55.8848 39.1117 56.1952 38.9096 56.538 38.7716C56.8807 38.6336 57.2489 38.5625 57.6208 38.5625C57.9928 38.5625 58.3609 38.6336 58.7037 38.7716C59.0464 38.9096 59.3568 39.1117 59.6165 39.3661C59.8763 39.6204 60.0801 39.9219 60.2161 40.2526C60.3521 40.5834 60.4174 40.9368 60.4083 41.2921V54.6091Z" fill="#B0D9FF"/>
<path id="Vector_5" d="M60.4083 54.6091C60.4174 54.9644 60.3521 55.3178 60.2161 55.6486C60.0801 55.9793 59.8763 56.2808 59.6165 56.5351C59.3568 56.7895 59.0464 56.9916 58.7037 57.1296C58.3609 57.2676 57.9928 57.3387 57.6208 57.3387C57.2489 57.3387 56.8807 57.2676 56.538 57.1296C56.1952 56.9916 55.8848 56.7895 55.6251 56.5351C55.3654 56.2808 55.1615 55.9793 55.0255 55.6486C54.8896 55.3178 54.8242 54.9644 54.8334 54.6091V41.2921C54.8242 40.9368 54.8896 40.5834 55.0255 40.2526C55.1615 39.9219 55.3654 39.6204 55.6251 39.3661C55.8848 39.1117 56.1952 38.9096 56.538 38.7716C56.8807 38.6336 57.2489 38.5625 57.6208 38.5625C57.9928 38.5625 58.3609 38.6336 58.7037 38.7716C59.0464 38.9096 59.3568 39.1117 59.6165 39.3661C59.8763 39.6204 60.0801 39.9219 60.2161 40.2526C60.3521 40.5834 60.4174 40.9368 60.4083 41.2921V54.6091Z" fill="#B0D9FF" stroke="#020064" stroke-linecap="round" stroke-linejoin="round"/>
<path id="Vector_6" d="M78.9942 54.6091C79.0034 54.9644 78.938 55.3178 78.8021 55.6486C78.6661 55.9793 78.4622 56.2808 78.2025 56.5351C77.9427 56.7895 77.6324 56.9916 77.2896 57.1296C76.9469 57.2676 76.5787 57.3387 76.2068 57.3387C75.8348 57.3387 75.4667 57.2676 75.1239 57.1296C74.7812 56.9916 74.4708 56.7895 74.211 56.5351C73.9513 56.2808 73.7474 55.9793 73.6115 55.6486C73.4755 55.3178 73.4102 54.9644 73.4193 54.6091V41.2921C73.4102 40.9368 73.4755 40.5834 73.6115 40.2526C73.7474 39.9219 73.9513 39.6204 74.211 39.3661C74.4708 39.1117 74.7812 38.9096 75.1239 38.7716C75.4667 38.6336 75.8348 38.5625 76.2068 38.5625C76.5787 38.5625 76.9469 38.6336 77.2896 38.7716C77.6324 38.9096 77.9427 39.1117 78.2025 39.3661C78.4622 39.6204 78.6661 39.9219 78.8021 40.2526C78.938 40.5834 79.0034 40.9368 78.9942 41.2921V54.6091Z" fill="#B0D9FF"/>
<path id="Vector_7" d="M78.9942 54.6091C79.0034 54.9644 78.938 55.3178 78.8021 55.6486C78.6661 55.9793 78.4622 56.2808 78.2025 56.5351C77.9427 56.7895 77.6324 56.9916 77.2896 57.1296C76.9469 57.2676 76.5787 57.3387 76.2068 57.3387C75.8348 57.3387 75.4667 57.2676 75.1239 57.1296C74.7812 56.9916 74.4708 56.7895 74.211 56.5351C73.9513 56.2808 73.7474 55.9793 73.6115 55.6486C73.4755 55.3178 73.4102 54.9644 73.4193 54.6091V41.2921C73.4102 40.9368 73.4755 40.5834 73.6115 40.2526C73.7474 39.9219 73.9513 39.6204 74.211 39.3661C74.4708 39.1117 74.7812 38.9096 75.1239 38.7716C75.4667 38.6336 75.8348 38.5625 76.2068 38.5625C76.5787 38.5625 76.9469 38.6336 77.2896 38.7716C77.6324 38.9096 77.9427 39.1117 78.2025 39.3661C78.4622 39.6204 78.6661 39.9219 78.8021 40.2526C78.938 40.5834 79.0034 40.9368 78.9942 41.2921V54.6091Z" fill="#B0D9FF" stroke="#020064" stroke-linecap="round" stroke-linejoin="round"/>
<path id="Vector_8" d="M97.5802 54.6091C97.5893 54.9644 97.524 55.3178 97.388 55.6486C97.252 55.9793 97.0482 56.2808 96.7884 56.5351C96.5287 56.7895 96.2183 56.9916 95.8756 57.1296C95.5328 57.2676 95.1646 57.3387 94.7927 57.3387C94.4208 57.3387 94.0526 57.2676 93.7098 57.1296C93.3671 56.9916 93.0567 56.7895 92.797 56.5351C92.5372 56.2808 92.3334 55.9793 92.1974 55.6486C92.0614 55.3178 91.9961 54.9644 92.0052 54.6091V41.2921C91.9961 40.9368 92.0614 40.5834 92.1974 40.2526C92.3334 39.9219 92.5372 39.6204 92.797 39.3661C93.0567 39.1117 93.3671 38.9096 93.7098 38.7716C94.0526 38.6336 94.4208 38.5625 94.7927 38.5625C95.1646 38.5625 95.5328 38.6336 95.8756 38.7716C96.2183 38.9096 96.5287 39.1117 96.7884 39.3661C97.0482 39.6204 97.252 39.9219 97.388 40.2526C97.524 40.5834 97.5893 40.9368 97.5802 41.2921V54.6091Z" fill="#B0D9FF"/>
<path id="Vector_9" d="M97.5802 54.6091C97.5893 54.9644 97.524 55.3178 97.388 55.6486C97.252 55.9793 97.0482 56.2808 96.7884 56.5351C96.5287 56.7895 96.2183 56.9916 95.8756 57.1296C95.5328 57.2676 95.1646 57.3387 94.7927 57.3387C94.4208 57.3387 94.0526 57.2676 93.7098 57.1296C93.3671 56.9916 93.0567 56.7895 92.797 56.5351C92.5372 56.2808 92.3334 55.9793 92.1974 55.6486C92.0614 55.3178 91.9961 54.9644 92.0052 54.6091V41.2921C91.9961 40.9368 92.0614 40.5834 92.1974 40.2526C92.3334 39.9219 92.5372 39.6204 92.797 39.3661C93.0567 39.1117 93.3671 38.9096 93.7098 38.7716C94.0526 38.6336 94.4208 38.5625 94.7927 38.5625C95.1646 38.5625 95.5328 38.6336 95.8756 38.7716C96.2183 38.9096 96.5287 39.1117 96.7884 39.3661C97.0482 39.6204 97.252 39.9219 97.388 40.2526C97.524 40.5834 97.5893 40.9368 97.5802 41.2921V54.6091Z" fill="#B0D9FF" stroke="#020064" stroke-linecap="round" stroke-linejoin="round"/>
<path id="Vector_10" d="M45.8735 119.489C45.8735 120.431 49.1044 121.334 54.8555 122C60.6065 122.666 68.4066 123.041 76.5398 123.041C84.673 123.041 92.4731 122.666 98.2242 122C103.975 121.334 107.206 120.431 107.206 119.489C107.206 118.547 103.975 117.644 98.2242 116.978C92.4731 116.312 84.673 115.938 76.5398 115.938C68.4066 115.938 60.6065 116.312 54.8555 116.978C49.1044 117.644 45.8735 118.547 45.8735 119.489Z" fill="#B0D9FF"/>
<path id="Vector_11" d="M91.5552 103.623C91.5552 109.746 94.1007 115.617 98.6317 119.946C103.163 124.275 109.308 126.708 115.716 126.708C122.124 126.708 128.269 124.275 132.8 119.946C137.331 115.617 139.877 109.746 139.877 103.623C139.877 100.592 139.252 97.59 138.038 94.7893C136.823 91.9886 135.044 89.4438 132.8 87.3003C130.557 85.1567 127.893 83.4563 124.962 82.2962C122.031 81.1362 118.889 80.5391 115.716 80.5391C112.543 80.5391 109.401 81.1362 106.47 82.2962C103.539 83.4563 100.875 85.1567 98.6317 87.3003C96.3882 89.4438 94.6085 91.9886 93.3943 94.7893C92.1801 97.59 91.5552 100.592 91.5552 103.623Z" fill="#B0D9FF"/>
<path id="Vector_12" d="M115.716 119.174C114.829 119.173 113.979 118.836 113.352 118.236C112.725 117.637 112.372 116.825 112.371 115.977V99.8398L108.417 103.617C107.789 104.216 106.939 104.553 106.051 104.553C105.164 104.553 104.314 104.216 103.686 103.617C103.059 103.017 102.707 102.205 102.707 101.357C102.707 100.509 103.059 99.6966 103.686 99.0973L113.351 89.8632C113.661 89.5661 114.03 89.3303 114.436 89.1694C114.842 89.0086 115.277 88.9258 115.716 88.9258C116.155 88.9258 116.591 89.0086 116.996 89.1694C117.402 89.3303 117.771 89.5661 118.081 89.8632L127.746 99.0973C128.056 99.394 128.303 99.7463 128.471 100.134C128.639 100.522 128.726 100.937 128.726 101.357C128.726 101.777 128.639 102.192 128.471 102.58C128.303 102.968 128.056 103.32 127.746 103.617C127.435 103.914 127.067 104.149 126.661 104.31C126.255 104.47 125.82 104.553 125.381 104.553C124.941 104.553 124.507 104.47 124.101 104.31C123.695 104.149 123.326 103.914 123.016 103.617L119.059 99.8398V115.977C119.058 116.824 118.705 117.636 118.079 118.235C117.452 118.835 116.603 119.172 115.716 119.174Z" fill="white" stroke="#020064" stroke-linecap="round" stroke-linejoin="round"/>
<path id="Vector_13" d="M91.5552 103.623C91.5552 109.746 94.1007 115.617 98.6317 119.946C103.163 124.275 109.308 126.708 115.716 126.708C122.124 126.708 128.269 124.275 132.8 119.946C137.331 115.617 139.877 109.746 139.877 103.623C139.877 100.592 139.252 97.59 138.038 94.7893C136.823 91.9886 135.044 89.4438 132.8 87.3003C130.557 85.1567 127.893 83.4563 124.962 82.2962C122.031 81.1362 118.889 80.5391 115.716 80.5391C112.543 80.5391 109.401 81.1362 106.47 82.2962C103.539 83.4563 100.875 85.1567 98.6317 87.3003C96.3882 89.4438 94.6085 91.9886 93.3943 94.7893C92.1801 97.59 91.5552 100.592 91.5552 103.623Z" stroke="#020064" stroke-linecap="round" stroke-linejoin="round"/>
</g>
</svg>
